<?xml version="1.0" encoding="UTF-8" standalone="no"?><svg xmlns="http://www.w3.org/2000/svg" xmlns:xlink="http://www.w3.org/1999/xlink" contentScriptType="text/ecmascript" fill="#ffffff" width="482" zoomAndPan="magnify" contentStyleType="text/css" viewBox="15.0 79.5 482.0 353.1" height="353" preserveAspectRatio="xMidYMid meet" version="1"><g><g id="change1_1"><path d="M494.59,382.81l-52.19-38.91c-1.82-1.36-4.25-1.57-6.28-.55-2.03,1.02-3.31,3.09-3.31,5.36v15.93h-26.76v-8.42c0-3.31-2.69-6-6-6s-6,2.69-6,6v8.42h-14.93v-5.2c0-3.31-2.69-6-6-6s-6,2.69-6,6v5.2h-14.93v-8.42c0-3.31-2.69-6-6-6s-6,2.69-6,6v8.42h-14.93v-5.2c0-3.31-2.69-6-6-6s-6,2.69-6,6v5.2h-14.93v-8.42c0-3.31-2.69-6-6-6s-6,2.69-6,6v8.42h-14.93v-5.2c0-3.31-2.69-6-6-6s-6,2.69-6,6v5.2h-14.93v-8.42c0-3.31-2.69-6-6-6s-6,2.69-6,6v8.42h-14.93v-5.2c0-3.31-2.69-6-6-6s-6,2.69-6,6v5.2h-14.93v-8.42c0-3.31-2.69-6-6-6s-6,2.69-6,6v8.42h-14.93v-5.2c0-3.31-2.69-6-6-6s-6,2.69-6,6v5.2h-14.93v-8.42c0-3.31-2.69-6-6-6s-6,2.69-6,6v8.42h-14.93v-5.2c0-3.31-2.69-6-6-6s-6,2.69-6,6v5.2h-14.93v-14.93h5.2c3.31,0,6-2.69,6-6s-2.69-6-6-6h-5.2v-14.93h8.42c3.31,0,6-2.69,6-6s-2.69-6-6-6h-8.42v-14.93h5.2c3.31,0,6-2.69,6-6s-2.69-6-6-6h-5.2v-14.93h8.42c3.31,0,6-2.69,6-6s-2.69-6-6-6h-8.42v-14.93h5.2c3.31,0,6-2.69,6-6s-2.69-6-6-6h-5.2v-14.93h8.42c3.31,0,6-2.69,6-6s-2.69-6-6-6h-8.42v-14.93h5.2c3.31,0,6-2.69,6-6s-2.69-6-6-6h-5.2v-32.48h15.93c2.27,0,4.34-1.28,5.36-3.31,1.02-2.03.8-4.46-.55-6.28l-38.91-52.19c-1.13-1.52-2.92-2.41-4.81-2.41s-3.68.9-4.81,2.41l-38.91,52.19c-1.36,1.82-1.57,4.25-.55,6.28,1.02,2.03,3.09,3.31,5.36,3.31h15.93v260.94c0,3.31,2.69,6,6,6h389.87v15.93c0,2.27,1.28,4.34,3.31,5.36.85.43,1.77.64,2.69.64,1.27,0,2.53-.4,3.59-1.19l52.19-38.91c1.52-1.13,2.41-2.92,2.41-4.81s-.9-3.68-2.41-4.81ZM444.81,414.57v-9.98c0-3.31-2.69-6-6-6H48.93V137.66c0-3.31-2.69-6-6-6h-9.98l26.95-36.15,26.95,36.15h-9.98c-3.31,0-6,2.69-6,6v232.99c0,3.31,2.69,6,6,6h361.93c3.31,0,6-2.69,6-6v-9.98l36.15,26.95-36.15,26.95ZM169.27,335.14c31.36,0,56.87-25.51,56.87-56.87s-25.51-56.87-56.87-56.87-56.87,25.51-56.87,56.87,25.51,56.87,56.87,56.87ZM169.27,233.39c24.74,0,44.87,20.13,44.87,44.87s-20.13,44.87-44.87,44.87-44.87-20.13-44.87-44.87,20.13-44.87,44.87-44.87ZM150.14,265.14c0-8.45,5.51-15.63,13.13-18.15v-2.58c0-3.31,2.69-6,6-6s6,2.69,6,6v2.56c5.79,1.89,10.42,6.47,12.29,12.56.97,3.17-.81,6.52-3.97,7.5-3.17.97-6.52-.81-7.5-3.97-.92-3.01-3.66-5.03-6.82-5.03-3.93,0-7.13,3.2-7.13,7.13s3.2,7.13,7.13,7.13c10.55,0,19.13,8.58,19.13,19.13,0,8.45-5.51,15.63-13.13,18.15v2.58c0,3.31-2.69,6-6,6s-6-2.69-6-6v-2.56c-5.79-1.89-10.42-6.47-12.29-12.55-.97-3.17.81-6.52,3.97-7.5,3.17-.97,6.52.81,7.5,3.97.92,3.01,3.66,5.03,6.82,5.03,3.93,0,7.13-3.2,7.13-7.13s-3.2-7.13-7.13-7.13c-10.55,0-19.13-8.58-19.13-19.13ZM255.96,271.36c42.1,30.79,94.84,50.63,165.98,62.44,1.09.18,2.17.27,3.23.27,3.34,0,6.5-.89,9.12-2.59,2.69-1.75,6.13-5.2,7.21-11.67h0c1.07-6.47-1.07-10.84-3.05-13.37-2.54-3.24-6.43-5.43-10.94-6.18-131.44-21.81-197.98-71.77-245.5-184.32-1.78-4.21-4.82-7.48-8.56-9.2-2.92-1.34-7.67-2.4-13.71.15-9.22,3.89-12.94,13.05-9.05,22.27,27.17,64.35,60.62,109.54,105.27,142.2ZM164.41,117.95c.95-.4,1.8-.6,2.57-.6.54,0,1.03.1,1.47.3,1.01.46,1.9,1.51,2.51,2.96,25.65,60.74,56.99,103.15,98.64,133.45,39.07,28.42,88.62,46.86,155.95,58.04,1.55.26,2.77.88,3.46,1.75.72.92.94,2.26.65,4h0c-.29,1.73-.93,2.94-1.91,3.57-.93.6-2.3.8-3.84.54-138.36-22.96-211.86-78.32-262.16-197.46-1.94-4.61,1.4-6.02,2.66-6.55ZM283.15,238.24c4.22,3.93,8.46,4.89,11.6,4.89.43,0,.84-.02,1.23-.05,4.1-.33,8.08-2.36,11.19-5.7,26.33-28.3,48.27-63.69,67.06-108.21,3.89-9.22.17-18.38-9.05-22.27-4.56-1.93-9.12-2.06-13.19-.39-4.04,1.66-7.18,4.92-9.09,9.44-17.22,40.79-37.06,72.94-60.63,98.28-3.11,3.35-4.85,7.46-4.88,11.57-.03,3.21.95,7.98,5.75,12.45ZM291.07,222.39c24.55-26.38,45.12-59.68,62.9-101.78.45-1.07,1.27-2.47,2.59-3.01.44-.18.9-.25,1.37-.25.94,0,1.87.29,2.6.6,3.14,1.33,3.99,3.41,2.66,6.55-18.24,43.2-39.44,77.45-64.79,104.71-1.07,1.15-2.27,1.83-3.37,1.92-1.17.09-2.41-.47-3.69-1.66t0,0c-1.29-1.2-1.93-2.4-1.92-3.56,0-1.11.6-2.36,1.67-3.5Z"/></g></g></svg>