<?xml version="1.0" encoding="UTF-8" standalone="no"?><svg xmlns="http://www.w3.org/2000/svg" xmlns:xlink="http://www.w3.org/1999/xlink" contentScriptType="text/ecmascript" fill="#ffffff" width="496" zoomAndPan="magnify" contentStyleType="text/css" viewBox="8.0 5.7 496.0 498.3" height="498.3" preserveAspectRatio="xMidYMid meet" version="1"><g id="change1_1"><path d="M486.945,278.885H376.443c-9.404,0-17.055,7.651-17.055,17.056v191.008c0,9.404,7.651,17.055,17.055,17.055h110.501 c9.404,0,17.055-7.65,17.055-17.055V295.941C504,286.537,496.349,278.885,486.945,278.885z M456.979,294.885l-1.63,4.409h-47.31 l-1.63-4.409H456.979z M488,486.949c0,0.562-0.493,1.055-1.055,1.055H376.443c-0.562,0-1.055-0.493-1.055-1.055V295.941 c0-0.562,0.493-1.056,1.055-1.056h12.907l5.614,15.184c1.161,3.141,4.155,5.226,7.503,5.226h58.452c3.348,0,6.342-2.085,7.503-5.226 l5.614-15.184h12.907c0.562,0,1.055,0.493,1.055,1.056V486.949z M448.963,475.134c0,4.418-3.582,8-8,8c0,0,0,0,0,0l-18.538-0.001 c-4.418,0-8-3.582-8-8c0-4.418,3.582-8,8-8c0,0,0,0,0,0l18.538,0.001C445.382,467.134,448.963,470.716,448.963,475.134z M267.311,431.594c-0.146,0-0.299,0.001-0.447,0.001l-69.27,0.265c-1.114,0-2.187-0.044-3.25-0.145 c0.295-0.271,0.587-0.552,0.875-0.84c9.373-9.373,9.499-24.72,0.286-34.938c-0.241-0.268-0.5-0.519-0.775-0.751 c-13.175-11.143-24.729-24.853-34.013-35.869c-3.263-3.871-6.344-7.527-9.053-10.532c-11.493-12.752-27.245-14.473-41.185-14.438 l-48.744,0.06l0.05-5.81c0.08-9.27-7.397-16.876-16.667-16.957l-19.298-0.166c-0.049,0-0.096,0-0.145,0 c-9.203,0-16.732,7.447-16.812,16.669L8.001,428.387c-0.039,4.481,1.676,8.716,4.83,11.923c3.153,3.207,7.356,4.995,11.838,5.034 l19.297,0.166c0.05,0,0.099,0,0.149,0c4.426,0,8.603-1.712,11.775-4.83c3.208-3.152,4.996-7.357,5.034-11.839l0.066-7.669l7.942,0 l55.336,55.335c9.537,9.538,21.479,14.551,34.622,14.551c0.489,0,0.979-0.007,1.471-0.021l127.519-3.613 c13.014-0.368,24.662-13.406,24.438-27.354C312.21,453.375,308.644,431.594,267.311,431.594z M44.674,429.27 c-0.114,0.11-0.298,0.263-0.57,0.24l-19.297-0.166c-0.267-0.002-0.455-0.138-0.566-0.25c-0.111-0.113-0.242-0.304-0.24-0.569 l0.861-100.243c0.004-0.424,0.392-0.807,0.814-0.807c0.002,0,0.004,0,0.006,0l19.297,0.166c0.426,0.003,0.81,0.395,0.807,0.82 l-0.727,84.708c0,0.001,0,0.001,0,0.002c0,0,0,0.001,0,0.001l-0.133,15.532C44.922,428.97,44.787,429.159,44.674,429.27z M287.427,471.43l-127.519,3.613c-9.354,0.265-17.528-3.051-24.327-9.85l-57.679-57.679c-1.5-1.5-3.535-2.343-5.656-2.343l-11.12,0 l0.47-54.764l48.901-0.06c14.94-0.059,23.407,2.633,29.281,9.149c2.531,2.808,5.391,6.201,8.703,10.131 c9.565,11.35,21.442,25.443,35.444,37.375c3.266,3.927,3.284,9.253-0.021,12.559c-1.318,1.318-5.311,5.293-12.532-0.031 c-6.6-5.876-12.588-12.06-18.92-18.602c-3.048-3.149-6.199-6.406-9.485-9.692c-3.124-3.123-8.189-3.123-11.313,0 c-3.124,3.125-3.124,8.189,0,11.314c3.193,3.193,6.298,6.401,9.301,9.504c6.645,6.867,12.922,13.354,20.097,19.713 c0.042,0.037,0.086,0.068,0.128,0.104c0.041,0.034,0.076,0.073,0.118,0.106l5.847,4.774c9.2,7.474,19.116,11.108,30.314,11.107 c0.064,0,0.129,0,0.194,0l69.271-0.265c0.124-0.001,0.247-0.001,0.37-0.001c17.788,0,28.898,4.866,29.024,12.732 C296.409,465.914,291.386,471.319,287.427,471.43z M40.797,341.981c-1.223,3.077-4.71,4.58-7.787,3.356 c-3.077-1.223-4.58-4.71-3.357-7.787c1.223-3.077,4.71-4.58,7.787-3.357C40.518,335.417,42.021,338.904,40.797,341.981z M16,198.154 h246.616l31.942,31.941c4.372,4.372,10.2,6.78,16.411,6.78c6.21,0,12.039-2.408,16.41-6.779l113.198-113.197 c4.371-4.371,6.779-10.199,6.779-16.41s-2.408-12.039-6.779-16.41l-69.297-69.297c-9.049-9.047-23.772-9.047-32.82,0l-25.162,25.162 c-1.383-1.141-3.155-1.826-5.088-1.826H16c-4.418,0-8,3.582-8,8v144.036C8,194.572,11.582,198.154,16,198.154z M243.103,110.137 h-23.53c-4.418,0-8,3.582-8,8s3.582,8,8,8h7.53l-1.842,1.842c-7.941,7.941-8.909,20.251-2.91,29.264H63.979 c-2.475-7.588-8.369-13.605-15.818-16.159V95.189c7.449-2.554,13.344-8.571,15.818-16.159h196.247 c1.072,3.305,2.802,6.337,5.062,8.922L243.103,110.137z M431.354,100.489c0,1.938-0.743,3.747-2.093,5.097L316.064,218.783 c-1.349,1.35-3.159,2.093-5.096,2.093c-1.937,0-3.747-0.743-5.097-2.094l-51.261-51.26L378,44.132l51.261,51.261 C430.611,96.742,431.354,98.552,431.354,100.489z M349.772,26.096c1.405-1.405,3.25-2.107,5.096-2.107s3.691,0.702,5.097,2.107 l6.722,6.722l-123.39,123.39l-6.721-6.721c-2.811-2.811-2.811-7.384,0-10.193L349.772,26.096z M24,54.118h275.123L276.68,76.56 c-1.085-1.578-1.716-3.491-1.716-5.53c0-4.418-3.582-8-8-8H57.244c-4.418,0-8,3.582-8,8c0,5.231-4.075,9.488-9.083,9.488 c-4.418,0-8,3.582-8,8v59.236c0,4.418,3.582,8,8,8c5.009,0,9.083,4.257,9.083,9.488c0,4.418,3.582,8,8,8h180.46l8.911,8.911H24 V54.118z M112.633,118.137c0,4.418-3.582,8-8,8H78.877c-4.418,0-8-3.582-8-8s3.582-8,8-8h25.756 C109.051,110.137,112.633,113.719,112.633,118.137z M163.44,110.083c-0.602-0.099-5.88-1.012-5.96-2.657 c-0.088-1.812,2.325-2.503,3.067-2.671c0.541-0.122,5.329-1.075,7.101,3.146c1.71,4.074,6.398,5.989,10.473,4.279 c4.074-1.71,5.989-6.399,4.279-10.473c-2.384-5.679-6.867-9.8-12.309-11.8c-0.237-4.205-3.722-7.542-7.987-7.542 c-4.297,0-7.803,3.389-7.992,7.639c-8.043,2.949-13.014,9.957-12.614,18.197c0.19,3.908,1.713,9.917,8.521,13.99 c-1.248-0.322-2.592-0.346-3.93-0.014c-4.287,1.069-6.896,5.411-5.827,9.698c1.747,7.004,6.944,12.26,13.858,14.557 c0.271,4.173,3.742,7.474,7.983,7.474c4.19,0,7.628-3.222,7.972-7.322c4.105-1.212,7.667-3.355,10.124-6.195 c3.109-3.595,4.439-8.07,3.848-12.944C183.258,120.939,179.042,112.645,163.44,110.083z M168.168,129.828 c-0.248,0.526-2.479,1.798-5.681,1.874c-0.588,0.015-5.771,0.029-6.7-3.696c-0.438-1.758-1.427-3.234-2.737-4.29 c2.176,0.914,4.751,1.657,7.798,2.157c4.665,0.766,7.126,1.943,7.315,3.501C168.198,129.651,168.177,129.8,168.168,129.828z M326.377,141.985c-4.505-4.503-11.838-4.504-16.344,0c0,0.001-0.001,0.001-0.001,0.002l-19.059,19.059 c-4.506,4.506-4.506,11.839,0,16.347l12.302,12.302c2.18,2.182,5.083,3.383,8.175,3.383c3.091,0,5.994-1.201,8.173-3.381 l19.058-19.058c2.181-2.181,3.382-5.084,3.382-8.175c0-3.09-1.201-5.992-3.381-8.172L326.377,141.985z M311.451,175.242 l-6.023-6.023l12.778-12.777l6.023,6.022L311.451,175.242z M385.033,66.986c3.124-3.123,8.189-3.123,11.313,0 c3.124,3.125,3.125,8.189,0,11.314l-40.216,40.217c-1.562,1.562-3.609,2.343-5.657,2.343s-4.095-0.781-5.657-2.343 c-3.124-3.125-3.125-8.189,0-11.314L385.033,66.986z M399.844,94.95c3.124,3.125,3.124,8.189,0,11.314l-27.983,27.983 c-1.562,1.562-3.609,2.343-5.657,2.343s-4.095-0.781-5.657-2.343c-3.124-3.125-3.124-8.189,0-11.314l27.983-27.983 C391.655,91.827,396.72,91.827,399.844,94.95z M431.694,220.729c-14.24,0-27.667,6.114-37.81,17.215 c-2.98,3.263-8.04,3.491-11.302,0.511c-3.262-2.98-3.49-8.04-0.51-11.302c13.21-14.46,30.833-22.424,49.622-22.424 c18.79,0,36.412,7.964,49.622,22.424c2.98,3.262,2.751,8.322-0.51,11.302c-1.535,1.402-3.467,2.094-5.394,2.094 c-2.169,0-4.331-0.877-5.909-2.604C459.362,226.842,445.935,220.729,431.694,220.729z M431.694,178.16 c25.272,0,48.991,10.727,66.787,30.204c2.98,3.262,2.752,8.322-0.51,11.303c-1.534,1.401-3.467,2.094-5.394,2.094 c-2.169,0-4.33-0.877-5.908-2.604c-14.729-16.12-34.252-24.997-54.976-24.997c-20.723,0-40.247,8.877-54.976,24.997 c-2.98,3.26-8.04,3.491-11.302,0.51c-3.262-2.98-3.49-8.041-0.509-11.303C382.704,188.886,406.423,178.16,431.694,178.16z M464.15,245.94c2.98,3.262,2.751,8.322-0.51,11.303c-1.534,1.401-3.467,2.094-5.394,2.094c-2.169,0-4.33-0.876-5.909-2.604 c-5.558-6.084-12.889-9.434-20.644-9.434s-15.086,3.35-20.644,9.434c-2.98,3.261-8.04,3.489-11.302,0.51 c-3.262-2.98-3.49-8.041-0.51-11.303c8.626-9.441,20.153-14.641,32.456-14.641S455.524,236.499,464.15,245.94z M459.951,405.155 c0.732,6.034-0.903,11.561-4.729,15.984c-3.61,4.174-9.155,7.175-15.528,8.542v1.825c0,4.418-3.582,8-8,8s-8-3.582-8-8v-1.963 c-10.088-2.479-17.769-9.559-20.188-19.266c-1.069-4.287,1.54-8.629,5.827-9.698c4.288-1.062,8.628,1.541,9.697,5.827 c1.539,6.173,8.125,8.21,13.305,8.096c4.492-0.106,8.927-1.682,10.785-3.83c0.6-0.693,1.181-1.661,0.947-3.589 c-0.221-1.822-0.74-6.092-13.611-8.204c-21.029-3.454-24.724-15.426-25.056-22.254c-0.538-11.081,6.76-20.404,18.293-23.594v-2.109 c0-4.418,3.582-8,8-8s8,3.582,8,8v2.037c7.438,1.977,14.394,6.937,18.122,15.815c1.71,4.073-0.205,8.763-4.279,10.473 c-4.076,1.712-8.763-0.205-10.473-4.279c-3.014-7.178-10.487-7.581-14.427-6.686c-1.769,0.401-7.519,2.133-7.255,7.566 c0.071,1.469,0.26,5.368,11.667,7.241C449.448,385.783,458.5,393.207,459.951,405.155z M344.852,368.872c0,4.418-3.582,8-8,8 h-98.754c-4.418,0-8-3.582-8-8s3.582-8,8-8h98.754C341.27,360.872,344.852,364.454,344.852,368.872z M263.436,227.856 c3.826,2.209,5.137,7.102,2.928,10.928l-49.377,85.524c-1.482,2.566-4.171,4.001-6.936,4.001c-1.357,0-2.733-0.346-3.993-1.073 c-3.826-2.209-5.137-7.102-2.928-10.928l49.377-85.524C254.717,226.957,259.61,225.646,263.436,227.856z M149.675,217.246 l25.56,95.39c1.144,4.268-1.389,8.654-5.657,9.798c-0.693,0.186-1.39,0.274-2.075,0.274c-3.533,0-6.765-2.357-7.723-5.932 l-25.56-95.39c-1.144-4.268,1.389-8.654,5.657-9.798C144.148,210.449,148.531,212.978,149.675,217.246z"/></g></svg>