<?xml version="1.0" encoding="UTF-8" standalone="no"?><svg xmlns="http://www.w3.org/2000/svg" xmlns:xlink="http://www.w3.org/1999/xlink" contentScriptType="text/ecmascript" zoomAndPan="magnify" contentStyleType="text/css" version="1" width="496" stroke-miterlimit="2" clip-rule="evenodd" fill="#ffffff" preserveAspectRatio="xMidYMid meet" viewBox="7.0 7.0 496.0 496.0" height="496" stroke-linejoin="round" fill-rule="evenodd"><g id="change1_1"><path d="M181.834,307.512L110.066,307.512C107.795,307.512 105.632,306.547 104.115,304.858C102.597,303.169 101.869,300.915 102.112,298.658C106.044,262.034 130.924,231.679 164.528,219.831C152.217,210.377 144.259,195.511 144.259,178.849C144.259,150.411 167.441,127.206 195.879,127.206C223.449,127.206 246.062,148.979 247.454,176.188C251.711,175.148 256.155,174.596 260.725,174.596C266.424,174.596 271.929,175.453 277.116,177.044C278.072,149.436 300.871,127.206 328.705,127.206C357.168,127.206 380.348,150.413 380.348,178.849C380.348,195.511 372.389,210.378 360.072,219.833C393.686,231.682 418.559,262.039 422.472,298.662C422.714,300.919 421.985,303.172 420.467,304.86C418.95,306.548 416.787,307.512 414.518,307.512L339.635,307.512C352.492,322.787 360.995,341.85 363.232,362.785C363.473,365.042 362.744,367.295 361.227,368.983C359.71,370.671 357.547,371.635 355.277,371.635L166.173,371.635C163.903,371.635 161.739,370.67 160.222,368.981C158.705,367.292 157.977,365.038 158.219,362.781C160.467,341.847 168.976,322.786 181.834,307.512ZM195.879,230.492C158.579,230.492 127.368,256.581 119.488,291.512L198.711,291.512C207.462,284.91 217.298,279.67 227.903,276.109C213.911,265.954 204.76,249.502 204.664,230.978C201.78,230.657 198.849,230.492 195.879,230.492ZM231.283,182.988C231.441,181.629 231.522,180.248 231.522,178.849C231.522,159.223 215.524,143.206 195.879,143.206C176.254,143.206 160.259,159.224 160.259,178.849C160.259,198.474 176.254,214.492 195.879,214.492C200.022,214.492 204.003,213.78 207.705,212.471C211.953,200.154 220.382,189.754 231.283,182.988ZM293.678,185.339C302.454,191.738 309.314,200.618 313.214,210.931C317.901,213.212 323.158,214.492 328.705,214.492C348.35,214.492 364.348,198.475 364.348,178.849C364.348,159.223 348.35,143.206 328.705,143.206C309.08,143.206 293.085,159.224 293.085,178.849C293.085,181.064 293.288,183.233 293.678,185.339ZM316.808,231.389C316.58,249.745 307.461,266.031 293.566,276.111C304.173,279.672 314.009,284.911 322.759,291.512C337.327,291.512 405.1,291.512 405.1,291.512C397.238,256.581 366.024,230.492 328.705,230.492C324.66,230.492 320.688,230.798 316.808,231.389ZM260.725,270.771C282.82,270.771 300.813,252.757 300.813,230.684C300.813,208.61 282.82,190.596 260.725,190.596C238.653,190.596 220.663,208.611 220.663,230.684C220.663,252.756 238.653,270.771 260.725,270.771ZM260.725,286.771C218.886,286.771 183.935,316.285 175.543,355.635C175.543,355.635 345.913,355.635 345.913,355.635C337.541,316.285 302.586,286.771 260.725,286.771ZM439.48,114.814L363.765,125.76C360.733,126.198 357.717,124.867 355.998,122.331C354.279,119.795 354.16,116.501 355.69,113.847C355.69,113.847 363.979,99.47 363.979,99.47C359.476,96.317 354.797,93.335 349.951,90.534C259.107,38.098 142.966,69.212 90.529,160.056C62.467,208.676 58.335,264.536 74.498,313.999C75.672,317.594 74.169,321.52 70.895,323.412L33.806,344.837C31.761,346.018 29.3,346.235 27.08,345.431C24.86,344.627 23.109,342.884 22.295,340.668C-2.197,273.997 1.972,197.348 40.24,131.018L40.241,131.015C108.728,12.41 260.387,-28.212 378.992,40.247L379.007,40.255C383.831,43.054 388.523,45.984 393.091,49.039L403.013,31.847C404.545,29.193 407.458,27.647 410.515,27.866C413.571,28.085 416.234,30.031 417.371,32.877L445.764,103.928C446.674,106.205 446.489,108.773 445.264,110.896C444.038,113.02 441.906,114.464 439.48,114.814ZM427.137,100.432L408.631,54.122L402.606,64.561C401.476,66.518 399.572,67.907 397.363,68.383C395.155,68.859 392.847,68.379 391.012,67.061C384.611,62.467 377.944,58.137 370.986,54.1C260.034,-9.936 118.165,28.065 54.098,139.015C20.012,198.098 14.847,265.932 34.207,326.127C34.207,326.127 57.365,312.75 57.365,312.75C42.148,260.691 47.416,202.746 76.671,152.057C133.527,53.56 259.453,19.822 357.951,76.678L357.955,76.68C365.462,81.018 372.597,85.757 379.333,90.866C382.544,93.302 383.442,97.745 381.429,101.236L377.779,107.568L427.137,100.432ZM487.707,169.346C512.199,236.018 508.03,312.667 469.734,378.999C401.274,497.577 249.615,538.227 131.015,469.743C126.185,466.959 121.476,464.032 116.901,460.969L106.935,478.248C105.404,480.903 102.49,482.45 99.433,482.231C96.376,482.012 93.713,480.066 92.576,477.22L64.183,406.168C63.273,403.892 63.458,401.324 64.683,399.2C65.909,397.077 68.041,395.633 70.467,395.282L146.182,384.336C149.215,383.898 152.232,385.231 153.95,387.768C155.669,390.305 155.787,393.601 154.254,396.255C154.254,396.255 146.005,410.538 146.005,410.538C150.52,413.694 155.202,416.678 160.052,419.481C250.869,471.917 367.036,440.802 419.473,349.959C447.535,301.337 451.667,245.476 435.504,195.986C434.329,192.39 435.834,188.463 439.111,186.573L476.2,165.175C478.244,163.996 480.705,163.779 482.924,164.584C485.143,165.388 486.893,167.131 487.707,169.346ZM475.794,183.881C475.794,183.881 452.638,197.241 452.638,197.241C467.854,249.324 462.585,307.269 433.331,357.957C376.475,456.455 250.52,490.192 152.05,433.336L152.047,433.334C144.545,428.999 137.414,424.264 130.654,419.158C127.432,416.724 126.528,412.27 128.548,408.773L132.153,402.531L82.81,409.664C82.81,409.664 101.314,455.969 101.314,455.969L107.395,445.427C108.527,443.464 110.439,442.073 112.656,441.6C114.873,441.128 117.186,441.617 119.021,442.947C125.381,447.559 132.06,451.878 139.004,455.88L139.01,455.884C249.962,519.952 391.835,481.925 455.877,370.999C489.99,311.914 495.155,244.078 475.794,183.881Z"/></g></svg>