<?xml version="1.0" encoding="UTF-8" standalone="no"?><svg xmlns="http://www.w3.org/2000/svg" xmlns:xlink="http://www.w3.org/1999/xlink" contentScriptType="text/ecmascript" fill="#ffffff" width="333" zoomAndPan="magnify" contentStyleType="text/css" viewBox="8.8 8.7 332.5 332.5" height="333" preserveAspectRatio="xMidYMid meet" version="1"><g id="change1_1"><path d="M110.571,93.108c-1.33-2.236-0.596-5.128,1.64-6.458c2.237-1.331,5.127-0.596,6.458,1.64 c3.599,6.049,10.086,3.773,11.99,2.931c6.564-2.905,14.712-12.529,10.25-27.141c-0.76-2.489,0.641-5.122,3.13-5.882 c2.483-0.759,5.122,0.641,5.882,3.13c4.324,14.158-0.152,26.282-7.905,33.494c-1.235,2.742-4.942,12.758,3.146,19.582 c1.989,1.678,2.241,4.651,0.563,6.639c-0.931,1.105-2.263,1.673-3.603,1.673c-1.073,0-2.151-0.364-3.035-1.111 c-7.155-6.037-8.852-13.793-8.311-20.488c-1.71,0.436-3.406,0.657-5.056,0.657C119.499,101.775,113.919,98.737,110.571,93.108z M145.94,163.889c2.588-0.268,4.469-2.583,4.201-5.171c-0.268-2.589-2.584-4.468-5.172-4.202 c-9.716,1.005-17.236,3.817-23.358,7.615c-1.458-15.349-8.16-24.212-14.048-29.122c-7.732-6.449-15.801-7.628-16.14-7.675 c-2.572-0.358-4.922,1.429-5.294,3.992c-0.372,2.563,1.41,4.948,3.971,5.338c0.949,0.144,22.812,3.833,22.369,34.674 c-4.696,4.565-8.471,9.642-12.058,14.473c-10.431,14.049-19.442,26.183-47.385,22.711c-2.588-0.317-4.936,1.513-5.256,4.095 c-0.321,2.582,1.512,4.936,4.094,5.256c3.611,0.448,6.968,0.658,10.105,0.658c25.883,0,36.512-14.314,46.008-27.104 C116.916,177.388,125.357,166.018,145.94,163.889z M137.575,261.77c0.15-0.245,0.302-0.488,0.447-0.736 c5.542-9.437,12.032-28.838-6.775-52.751c-1.608-2.045-4.57-2.399-6.616-0.791c-2.046,1.609-2.4,4.571-0.791,6.616 c15.348,19.517,10.382,34.788,6.056,42.154c-6.221,10.59-17.776,16.826-24.26,15.792c-2.574-0.408-4.985,1.343-5.393,3.913 c-0.409,2.57,1.344,4.985,3.913,5.393c0.964,0.153,1.953,0.228,2.962,0.228c8.117,0,17.517-4.82,24.689-12.349 c3.041,2.085,8.315,6.486,10.118,12.903c1.511,5.38,0.295,11.354-3.615,17.754c-1.357,2.221-0.656,5.12,1.564,6.477 c0.767,0.468,1.614,0.691,2.452,0.691c1.587,0,3.137-0.802,4.025-2.256c5.353-8.762,6.907-17.278,4.619-25.309 C148.448,270.644,141.814,264.76,137.575,261.77z M172.855,179.712v29.611h67.761c1.099,0,2.163,0.384,3.009,1.086l48.617,40.348 c4.338-3.58,9.895-5.733,15.945-5.733c13.833,0,25.087,11.254,25.087,25.088s-11.254,25.088-25.087,25.088 c-13.834,0-25.088-11.254-25.088-25.088c0-4.387,1.135-8.513,3.122-12.105l-47.307-39.26h-66.061v29.611h47.272 c2.602,0,4.712,2.109,4.712,4.712v38.457c11.588,2.212,20.376,12.415,20.376,24.637c0,13.833-11.254,25.088-25.087,25.088 c-13.834,0-25.088-11.254-25.088-25.088c0-12.223,8.788-22.426,20.376-24.637V257.78h-42.56v44.192 c0,21.658-17.62,39.278-39.278,39.278c-17.354,0-32.336-11.127-37.451-27.414c-0.797,0.044-1.598,0.073-2.402,0.073 c-23.43,0-42.493-19.062-42.493-42.492c0-3.277,0.375-6.518,1.111-9.677C27.118,253.897,8.75,230.335,8.75,202.563 c0-21.799,11.318-41.003,28.385-52.049c-2.233-5.321-3.407-11.097-3.407-16.901c0-18.516,11.612-34.362,27.933-40.664 c-1.565-4.401-2.366-9.013-2.366-13.768c0-22.71,18.476-41.187,41.187-41.187c0.399,0,0.799,0.025,1.199,0.036 c3.115-16.643,17.743-29.281,35.276-29.281c19.794,0,35.897,16.104,35.897,35.898V92.22h42.56V58.475 c-11.588-2.212-20.376-12.415-20.376-24.637c0-13.833,11.254-25.088,25.088-25.088c13.833,0,25.087,11.254,25.087,25.088 c0,12.223-8.788,22.426-20.376,24.637v38.457c0,2.602-2.109,4.712-4.712,4.712h-47.272v29.611h66.061l47.307-39.26 c-1.987-3.592-3.122-7.718-3.122-12.105c0-13.833,11.254-25.088,25.088-25.088c13.833,0,25.087,11.254,25.087,25.088 s-11.254,25.088-25.087,25.088c-6.051,0-11.608-2.153-15.945-5.733l-48.617,40.348c-0.846,0.702-1.91,1.086-3.009,1.086h-67.761 v29.611h118.67c2.212-11.588,12.415-20.376,24.637-20.376c13.834,0,25.088,11.254,25.088,25.088s-11.254,25.088-25.088,25.088 c-12.222,0-22.425-8.788-24.637-20.376H172.855z M300.498,175c0,8.637,7.027,15.664,15.664,15.664 c8.638,0,15.665-7.027,15.665-15.664s-7.027-15.664-15.665-15.664C307.525,159.336,300.498,166.363,300.498,175z M292.524,79.889 c0,8.637,7.027,15.664,15.665,15.664c8.637,0,15.664-7.027,15.664-15.664s-7.027-15.664-15.664-15.664 C299.551,64.225,292.524,71.252,292.524,79.889z M220.127,49.502c8.637,0,15.664-7.027,15.664-15.664s-7.027-15.664-15.664-15.664 c-8.638,0-15.665,7.027-15.665,15.664S211.489,49.502,220.127,49.502z M220.127,300.498c-8.638,0-15.665,7.027-15.665,15.664 s7.027,15.664,15.665,15.664c8.637,0,15.664-7.027,15.664-15.664S228.764,300.498,220.127,300.498z M308.188,254.446 c-8.638,0-15.665,7.027-15.665,15.664s7.027,15.664,15.665,15.664c8.637,0,15.664-7.027,15.664-15.664 S316.825,254.446,308.188,254.446z M163.432,44.648c0-14.598-11.876-26.474-26.474-26.474s-26.475,11.876-26.475,26.474 c0,7.525,3.219,14.72,8.833,19.74c1.939,1.735,2.105,4.713,0.371,6.653c-1.736,1.94-4.714,2.104-6.653,0.371 c-6.912-6.182-11.134-14.799-11.852-23.972c-0.233-0.005-0.466-0.021-0.699-0.021c-17.514,0-31.763,14.249-31.763,31.763 c0,3.93,0.71,7.731,2.092,11.337c2.121-0.318,4.29-0.487,6.499-0.487c7.254,0,14.438,1.82,20.776,5.263 c2.287,1.242,3.133,4.103,1.892,6.389c-1.242,2.287-4.103,3.133-6.389,1.891c-4.962-2.695-10.591-4.12-16.279-4.12 c-18.835,0-34.158,15.323-34.158,34.158c0,4.303,0.784,8.448,2.315,12.373c7.713-3.454,16.254-5.378,25.238-5.378 c2.602,0,4.712,2.109,4.712,4.712c0,2.602-2.109,4.712-4.712,4.712c-28.966,0-52.532,23.566-52.532,52.532 s23.566,52.532,52.532,52.532c9.12,0,18.101-2.372,25.974-6.86c2.26-1.289,5.138-0.5,6.426,1.76c1.289,2.261,0.501,5.138-1.76,6.427 c-9.292,5.297-19.887,8.096-30.641,8.096c-3.117,0-6.181-0.234-9.176-0.681c-0.579,2.471-0.874,5.01-0.874,7.58 c0,18.235,14.835,33.069,33.07,33.069c8.649,0,16.83-3.317,23.034-9.341c1.866-1.814,4.849-1.769,6.662,0.098 c1.812,1.867,1.769,4.85-0.099,6.662c-5.068,4.922-11.166,8.431-17.79,10.339c4.242,11.693,15.302,19.583,28.046,19.583 c16.462,0,29.855-13.393,29.855-29.855V44.648z"/></g></svg>