<?xml version="1.0" encoding="UTF-8" standalone="no"?><svg xmlns="http://www.w3.org/2000/svg" xmlns:xlink="http://www.w3.org/1999/xlink" contentScriptType="text/ecmascript" zoomAndPan="magnify" text-rendering="geometricPrecision" contentStyleType="text/css" version="1" width="1707" clip-rule="evenodd" fill="#ffffff" preserveAspectRatio="xMidYMid meet" viewBox="0.0 26.4 1707.0 1654.0" height="1654" fill-rule="evenodd" image-rendering="optimizeQuality"><g id="change1_1" fill-rule="nonzero"><path d="M89 1138c-9,0 -17,-7 -17,-16 0,-10 8,-17 17,-17l117 0c10,0 17,7 17,17 0,9 -7,16 -17,16l-117 0z"/><path d="M89 1226c-9,0 -17,-7 -17,-16 0,-10 8,-17 17,-17l117 0c10,0 17,7 17,17 0,9 -7,16 -17,16l-117 0z"/><path d="M89 1314c-9,0 -17,-7 -17,-17 0,-9 8,-16 17,-16l117 0c10,0 17,7 17,16 0,10 -7,17 -17,17l-117 0z"/><path d="M89 1402c-9,0 -17,-8 -17,-17 0,-9 8,-16 17,-16l117 0c10,0 17,7 17,16 0,9 -7,17 -17,17l-117 0z"/><path d="M89 1490c-9,0 -17,-8 -17,-17 0,-9 8,-17 17,-17l117 0c10,0 17,8 17,17 0,9 -7,17 -17,17l-117 0z"/><path d="M89 1578c-9,0 -17,-8 -17,-17 0,-9 8,-17 17,-17l117 0c10,0 17,8 17,17 0,9 -7,17 -17,17l-117 0z"/><path d="M284 1544c-9,3 -19,-2 -21,-11 -3,-9 2,-18 10,-21 75,-23 135,9 209,49 139,76 329,179 759,-81 49,-30 93,-62 125,-95 25,-25 42,-51 45,-75 -1,-9 -7,-99 -178,-21l0 0 -220 107c-8,4 -18,0 -22,-8l0 0c-48,-96 -158,-162 -283,-198 -143,-42 -307,-43 -424,-3 -9,3 -18,-2 -21,-10 -3,-9 1,-18 10,-21 123,-43 294,-41 444,2 128,37 240,104 296,201l206 -100 0 0 0 0c227,-104 225,51 225,51l0 0c0,1 0,2 0,2 -4,33 -24,65 -54,96 -34,35 -81,69 -132,100 -446,270 -646,162 -792,82 -67,-36 -121,-65 -182,-46z"/><path d="M990 1376c3,-9 13,-14 21,-11 5,2 9,5 10,9l0 0 0 0c0,0 0,0 0,0l1 1c5,8 19,33 24,61 3,14 3,26 1,37 -5,24 -20,39 -40,48 -19,7 -41,10 -64,9 -36,-2 -75,-12 -99,-22 -9,-4 -12,-14 -9,-22 4,-9 14,-12 22,-9 21,9 55,18 88,19 18,1 35,0 48,-6 11,-5 19,-12 21,-24 2,-6 2,-14 0,-24 -5,-22 -17,-43 -21,-50l0 -1c-2,-3 -3,-4 -3,-7l0 0c-1,-3 -1,-6 0,-8l0 0z"/><path d="M61 1030l173 0c17,0 32,7 43,18l0 0c11,11 18,27 18,43l0 500c0,17 -7,32 -18,43 0,1 0,1 -1,1 -11,11 -26,17 -42,17l-173 0c-17,0 -32,-6 -43,-18 -11,-11 -18,-26 -18,-43l0 -500c0,-16 7,-32 18,-43 11,-11 26,-18 43,-18zm173 33l-173 0c-7,0 -14,4 -19,9 -6,5 -9,12 -9,19l0 500c0,8 3,15 9,20 5,5 12,8 19,8l173 0c7,0 14,-3 19,-7l1 -1c5,-5 8,-12 8,-20l0 -500c0,-7 -3,-14 -8,-19l0 0 0 0c-5,-5 -12,-9 -20,-9z"/><path d="M509 1140c1,9 -6,17 -15,18 -9,1 -17,-6 -18,-15 -7,-69 10,-150 60,-243 44,-82 114,-173 215,-274 3,-3 7,-5 12,-5l0 0 164 0 165 0c5,0 9,2 12,6 129,128 206,241 245,338 46,116 38,211 -4,285 -4,8 -14,11 -22,6 -8,-4 -11,-15 -7,-23 37,-65 44,-151 2,-255 -37,-93 -111,-201 -233,-324l-158 0 -157 0c-97,97 -163,184 -205,262 -46,86 -62,161 -56,224z"/><path d="M736 522l382 0c18,0 33,8 45,20 11,12 17,28 17,46l0 0c0,18 -6,34 -17,46 -12,13 -27,20 -45,20l-382 0c-18,0 -33,-7 -44,-20 -11,-12 -18,-28 -18,-46l0 0c0,-18 7,-34 18,-46 11,-12 26,-20 44,-20zm382 33l-382 0c-8,0 -15,4 -20,9 -5,6 -9,15 -9,24l0 0c0,9 4,18 9,24 5,5 12,9 20,9l382 0c8,0 15,-4 20,-9 6,-6 9,-15 9,-24l0 0c0,-9 -3,-18 -9,-24 -5,-5 -12,-9 -20,-9z"/><path d="M1144 366c3,-9 13,-13 22,-10 8,3 13,12 10,21l-60 167c-3,7 -9,11 -16,11l0 0 -346 0c-7,0 -14,-5 -16,-12l-59 -166c-3,-9 1,-18 10,-21 8,-3 18,1 21,10l56 156 322 0 56 -156z"/><path d="M694 388c-9,0 -16,-7 -16,-17 0,-9 7,-16 16,-16 16,0 30,4 44,9 12,4 24,8 34,8 10,0 22,-4 33,-8 15,-5 29,-9 45,-9 15,0 29,4 44,9 11,4 23,8 33,8 10,0 22,-4 34,-8 14,-5 28,-9 44,-9 15,0 30,4 44,9 11,4 23,8 33,8 11,0 22,-4 34,-8 14,-5 28,-9 44,-9 9,0 17,7 17,16 0,10 -8,17 -17,17 -10,0 -22,4 -34,8 -14,5 -28,9 -44,9 -15,0 -29,-4 -44,-9 -11,-4 -23,-8 -33,-8 -11,0 -22,4 -34,8 -14,5 -28,9 -44,9 -15,0 -30,-4 -44,-9 -12,-4 -23,-8 -33,-8 -11,0 -22,4 -34,8 -14,5 -29,9 -44,9 -16,0 -30,-4 -44,-9 -12,-4 -23,-8 -34,-8z"/><path d="M857 1085c0,-9 7,-17 16,-17 10,0 17,8 17,17 0,10 4,20 11,26 7,7 16,11 26,11 10,0 20,-4 26,-11 7,-6 11,-16 11,-26 0,-10 -4,-19 -11,-26 -6,-7 -16,-11 -26,-11 -19,0 -37,-8 -50,-21 -12,-12 -20,-30 -20,-49 0,-20 8,-37 20,-50l0 0 0 0 0 0c13,-13 31,-21 50,-21 20,0 37,8 50,21 13,13 21,30 21,50 0,9 -8,16 -17,16 -9,0 -17,-7 -17,-16 0,-11 -4,-20 -11,-27 -6,-6 -16,-11 -26,-11 -10,0 -19,5 -26,11l0 0c-7,7 -11,16 -11,27 0,10 4,19 11,26 7,7 16,11 26,11 20,0 37,8 50,20 13,13 21,31 21,50 0,20 -8,37 -21,50l0 0c-13,13 -30,21 -50,21 -19,0 -37,-8 -50,-21 -12,-13 -20,-30 -20,-50z"/><path d="M910 886c0,-9 8,-17 17,-17 9,0 17,8 17,17l0 291c0,9 -8,17 -17,17 -9,0 -17,-8 -17,-17l0 -291z"/><path d="M665 1152c4,8 1,18 -8,22 -8,3 -18,0 -22,-9 -9,-20 -17,-42 -22,-65 -4,-22 -7,-45 -7,-69 0,-88 36,-169 94,-227 58,-58 138,-94 227,-94 89,0 169,36 227,94 58,58 94,139 94,227 0,80 -29,153 -77,209 -48,57 -116,96 -193,109 -10,1 -18,-5 -19,-14 -2,-9 4,-18 13,-19 70,-11 131,-47 174,-98 43,-50 69,-115 69,-187 0,-79 -32,-151 -84,-203 -52,-52 -124,-84 -204,-84 -79,0 -151,32 -203,84 -52,52 -85,124 -85,203 0,22 3,42 7,62 4,21 11,40 19,59z"/><path d="M814 1193c7,6 9,16 4,23 -6,8 -16,10 -23,4 -31,-21 -56,-49 -73,-82 -16,-32 -26,-68 -26,-107 0,-63 26,-121 68,-163 42,-42 99,-68 163,-68 64,0 122,26 163,68 42,42 68,100 68,163 0,64 -26,122 -68,164 -41,41 -99,67 -163,67 -12,0 -25,-1 -37,-3 -13,-2 -25,-5 -37,-9 -9,-3 -13,-12 -10,-21 2,-9 12,-13 21,-10 10,3 20,6 31,7 10,2 21,3 32,3 55,0 104,-22 140,-58 36,-36 58,-85 58,-140 0,-54 -22,-104 -58,-139 -36,-36 -85,-58 -140,-58 -54,0 -104,22 -140,58 -35,35 -57,85 -57,139 0,33 8,64 22,91 14,29 36,53 62,71z"/><path d="M1625 630l11 39c1,3 0,6 0,9 10,56 14,114 12,171 -2,56 -10,112 -24,167l72 27c9,3 13,13 10,22 -2,4 -5,7 -9,9l-200 107c-8,5 -18,2 -22,-7 -1,0 -1,-1 -1,-2l-78 -214c-3,-8 1,-18 10,-21 4,-1 8,-1 12,0l0 0 71 27c11,-46 16,-93 17,-140 0,-53 -7,-106 -19,-159l0 0 -4 -12c-22,-84 -61,-161 -112,-229 -52,-67 -116,-124 -191,-167 -75,-43 -157,-71 -241,-82 -84,-11 -170,-6 -254,17l-53 14c-9,2 -18,-3 -20,-12l-29 -106c-2,-9 3,-18 12,-20l53 -15c102,-27 207,-33 310,-20 102,14 202,47 293,100 82,47 153,107 212,178 58,69 104,147 135,232 3,2 5,5 5,8l0 0 16 53 0 1c1,4 2,8 3,12l0 1c1,4 2,7 3,12l0 0zm-23 40l-9 -32 0 0 0 0c-1,-4 -2,-8 -3,-12l0 0c-1,-5 -2,-9 -3,-12l0 -1 -13 -45c-2,-2 -3,-4 -4,-6 -30,-84 -75,-162 -132,-230 -57,-67 -125,-125 -203,-170 -88,-51 -184,-83 -282,-96 -98,-13 -199,-7 -296,20l-37 10 19 74 38 -10c87,-24 178,-30 266,-18 88,12 174,41 253,86 79,46 147,106 201,176 54,71 95,152 118,240l4 13 0 0 0 0c13,55 20,111 20,167 -1,56 -8,112 -22,167l0 0c0,0 0,1 0,2 -4,8 -13,13 -22,9l-55 -21 59 162 151 -82 -51 -19 0 0c-8,-3 -13,-12 -11,-20l1 -4c15,-56 24,-113 26,-170 2,-57 -2,-115 -13,-171l0 0c-1,-3 -1,-5 0,-7zm-1491 -84c9,3 14,12 12,21l-5 17c-17,65 -26,132 -26,199 0,67 9,134 27,199 1,3 2,6 3,10 1,4 2,7 3,10 2,9 -3,18 -11,21 -9,2 -18,-3 -21,-11 -1,-4 -2,-8 -3,-11 -1,-3 -2,-7 -3,-10 -18,-68 -28,-138 -28,-208 0,-70 9,-140 27,-207l0 -2 -71 -19c-8,-2 -14,-11 -11,-20 1,-5 4,-8 8,-10l187 -127c7,-6 18,-4 23,4 0,1 1,1 1,2l0 0 99 205c4,8 1,18 -7,22 -4,2 -8,2 -12,1l0 0 -78 -21 -1 2c-15,55 -22,113 -22,170 0,57 8,114 23,170 2,8 5,17 7,24 3,8 5,16 8,24 3,9 -1,18 -10,21 -9,4 -18,-1 -21,-10 -3,-8 -6,-16 -9,-25 -2,-8 -5,-17 -7,-25 -16,-59 -24,-119 -24,-179 0,-61 8,-121 23,-179l5 -17c2,-9 11,-15 20,-12l60 16 -75 -155 -143 96 52 14zm153 585c-4,-8 -2,-19 6,-23 8,-5 18,-2 23,6l2 3 0 0 2 4c5,8 3,18 -5,23 -8,5 -18,2 -23,-6l-2 -3 0 -1 0 0 -3 -3z"/><path d="M102 619c-8,-3 -14,-12 -11,-21 2,-9 11,-14 20,-12l43 12c9,2 14,11 12,20 -2,9 -12,14 -20,12l-44 -11z"/><path d="M1557 1026c-9,-3 -13,-13 -10,-21 3,-9 13,-13 22,-10l41 16c9,3 13,12 10,21 -3,9 -13,13 -21,10l-42 -16z"/></g></svg>