<?xml version="1.0" encoding="UTF-8" standalone="no"?><svg xmlns="http://www.w3.org/2000/svg" xmlns:xlink="http://www.w3.org/1999/xlink" contentScriptType="text/ecmascript" fill="#000000" width="720" zoomAndPan="magnify" contentStyleType="text/css" viewBox="-44.3 -18.7 719.7 368.9" height="369" data-name="Layer 2" preserveAspectRatio="xMidYMid meet" version="1"><g data-name="Layer 1"><g><g id="change1_1"><path fill="#eff1e4" d="M598.69,75.431C522.007,9.089,333.065-18.73,176.677,13.293,65.014,36.158.139,83.35.079,132.622L0,197.196c0,.236.008.471.011.707.002.176.004.352.008.528.02.938.06,1.876.127,2.814.011.152.025.303.037.455.077.98.174,1.96.303,2.94.003.026.008.052.012.079.129.971.289,1.943.469,2.914.025.137.048.274.074.411.182.944.391,1.888.622,2.833.043.177.087.355.132.533.239.941.499,1.881.786,2.822.046.15.095.3.142.45.308.983.635,1.966.996,2.949.008.021.016.042.024.063.359.974.75,1.947,1.161,2.92.059.14.115.279.175.419.405.942.839,1.883,1.294,2.823.085.177.171.353.259.53.463.938.948,1.874,1.46,2.81.081.149.166.297.249.446.544.979,1.109,1.958,1.707,2.936.008.013.016.025.024.038.597.973,1.227,1.944,1.878,2.914.094.14.185.281.281.421.634.933,1.296,1.864,1.98,2.794.129.175.259.35.389.526.693.928,1.408,1.855,2.151,2.78.117.145.237.29.355.435.788.969,1.595,1.938,2.439,2.903.006.006.012.013.017.019.842.963,1.719,1.924,2.617,2.883.13.139.258.279.39.418.867.918,1.764,1.833,2.683,2.747.173.172.346.343.521.515.928.912,1.88,1.823,2.86,2.731.151.14.307.28.46.42,1.037.952,2.095,1.903,3.19,2.851,76.684,66.341,265.626,94.161,422.014,62.137,2.184-.447,4.343-.907,6.491-1.372.599-.13,1.195-.262,1.792-.393,1.709-.376,3.407-.759,5.093-1.146.471-.108.946-.215,1.415-.324,2.081-.485,4.145-.978,6.19-1.48.465-.114.925-.231,1.388-.346,1.641-.407,3.271-.821,4.888-1.239.566-.147,1.133-.293,1.697-.441,2.012-.528,4.011-1.061,5.986-1.606.023-.006.045-.013.068-.019,1.956-.54,3.888-1.091,5.807-1.647.546-.158,1.089-.318,1.632-.477,1.543-.453,3.074-.912,4.593-1.375.423-.129.851-.257,1.272-.387,1.876-.578,3.732-1.165,5.571-1.759.418-.135.831-.273,1.247-.408,1.475-.482,2.938-.969,4.389-1.46.505-.171,1.009-.342,1.511-.514,1.803-.619,3.594-1.243,5.359-1.877.019-.007.037-.014.056-.02,1.747-.628,3.468-1.265,5.176-1.907.485-.182.966-.366,1.448-.549,1.374-.523,2.735-1.05,4.084-1.582.373-.147.75-.293,1.121-.44,1.661-.662,3.302-1.331,4.924-2.006.372-.155.738-.312,1.108-.467,1.298-.546,2.584-1.097,3.857-1.652.444-.193.889-.387,1.33-.581,1.583-.698,3.152-1.401,4.695-2.112.028-.013.056-.026.084-.04,1.516-.7,3.007-1.408,4.484-2.12.423-.204.842-.409,1.261-.613,1.197-.584,2.38-1.172,3.551-1.764.321-.163.647-.324.966-.487,1.438-.735,2.855-1.475,4.252-2.221.324-.173.642-.348.964-.522,1.114-.601,2.216-1.207,3.304-1.815.381-.213.763-.426,1.142-.641,1.353-.767,2.693-1.537,4.005-2.315.036-.021.071-.043.108-.065,1.278-.759,2.53-1.525,3.768-2.294.36-.224.716-.448,1.073-.672,1.012-.637,2.01-1.278,2.995-1.922.268-.175.54-.349.806-.525,1.206-.797,2.392-1.6,3.557-2.407.273-.189.539-.38.809-.569.926-.649,1.838-1.301,2.737-1.956.315-.23.631-.459.943-.69,1.118-.826,2.223-1.656,3.298-2.492.029-.022.056-.045.085-.067,1.047-.815,2.068-1.636,3.074-2.46.291-.238.578-.477.865-.716.822-.683,1.631-1.37,2.425-2.059.212-.184.429-.367.639-.552.968-.85,1.914-1.705,2.839-2.563.216-.201.426-.402.639-.604.733-.69,1.452-1.382,2.158-2.077.246-.243.494-.485.737-.728.873-.875,1.731-1.752,2.56-2.634.029-.031.057-.063.086-.094.8-.854,1.574-1.712,2.332-2.573.221-.25.438-.501.655-.752.624-.721,1.232-1.444,1.827-2.169.157-.192.319-.383.474-.575.721-.893,1.418-1.79,2.094-2.689.157-.209.308-.42.463-.63.533-.722,1.052-1.446,1.556-2.171.176-.253.353-.507.526-.761.62-.912,1.224-1.827,1.798-2.745.024-.038.045-.076.069-.114.551-.884,1.074-1.771,1.582-2.66.149-.26.294-.521.439-.782.416-.748.817-1.498,1.203-2.25.102-.199.209-.397.309-.596.464-.924.904-1.851,1.322-2.78.098-.218.189-.437.284-.655.326-.745.637-1.492.933-2.24.103-.26.207-.52.306-.78.359-.941.702-1.883,1.013-2.828.014-.042.025-.084.039-.126.296-.905.565-1.813.817-2.722.074-.268.145-.536.216-.804.202-.768.389-1.537.56-2.307.045-.202.095-.404.138-.607.199-.946.374-1.893.526-2.842.036-.224.064-.448.097-.671.112-.76.209-1.52.291-2.282.028-.265.058-.53.083-.795.089-.958.161-1.916.201-2.876.002-.048.001-.096.003-.143.028-.71.046-1.421.046-2.132.005-3.977.01-8.235.015-12.645l.02-16.398c.009-7.733.019-15.528.028-22.887l.015-12.645c.024-19.735-10.35-39.804-32.281-58.776ZM380.655,189.76c-69.526,14.237-152.76,3.255-191.889-24.423,14.169-9.918,35.049-18.267,61.551-23.694,69.523-14.236,152.753-3.256,191.884,24.42-14.169,9.918-35.042,18.27-61.546,23.697Z"/></g><g id="change1_2"><path fill="#eff1e4" d="M463.492,133.786l-.079,64.574c.011-9.257-4.855-18.671-15.142-27.57-35.97-31.119-124.598-44.168-197.955-29.147-52.378,10.725-82.809,32.862-82.837,55.974l.079-64.574c.028-23.112,30.459-45.248,82.837-55.974,73.357-15.021,161.985-1.972,197.955,29.147,10.287,8.9,15.153,18.313,15.142,27.57Z"/></g><g id="change2_1"><path opacity="0.2" d="M463.492,133.786l-.079,64.574c.011-9.257-4.855-18.671-15.142-27.57-35.97-31.119-124.598-44.168-197.955-29.147-52.378,10.725-82.809,32.862-82.837,55.974l.079-64.574c.028-23.112,30.459-45.248,82.837-55.974,73.357-15.021,161.985-1.972,197.955,29.147,10.287,8.9,15.153,18.313,15.142,27.57Z"/></g><g id="change1_3"><path fill="#eff1e4" d="M32.359,191.398C-44.324,125.057,20.289,45.317,176.677,13.293c156.388-32.023,345.33-4.204,422.014,62.137,76.684,66.341,12.07,146.081-144.318,178.105-156.388,32.023-345.33,4.204-422.014-62.137ZM182.7,160.613c35.97,31.119,124.598,44.168,197.955,29.147,73.357-15.021,103.666-52.425,67.695-83.544-35.97-31.119-124.598-44.168-197.955-29.147-73.357,15.021-103.666,52.425-67.695,83.544"/></g><g id="change2_2"><path opacity="0.1" d="M32.359,191.398C-44.324,125.057,20.289,45.317,176.677,13.293c156.388-32.023,345.33-4.204,422.014,62.137,76.684,66.341,12.07,146.081-144.318,178.105-156.388,32.023-345.33,4.204-422.014-62.137ZM182.7,160.613c35.97,31.119,124.598,44.168,197.955,29.147,73.357-15.021,103.666-52.425,67.695-83.544-35.97-31.119-124.598-44.168-197.955-29.147-73.357,15.021-103.666,52.425-67.695,83.544"/></g></g></g></svg>