<?xml version="1.0" encoding="UTF-8" standalone="no"?><svg xmlns="http://www.w3.org/2000/svg" xmlns:xlink="http://www.w3.org/1999/xlink" contentScriptType="text/ecmascript" zoomAndPan="magnify" text-rendering="geometricPrecision" contentStyleType="text/css" version="1" width="1707" clip-rule="evenodd" fill="#000000" preserveAspectRatio="xMidYMid meet" viewBox="0.0 23.0 1706.0 1660.0" height="1707" fill-rule="evenodd" image-rendering="optimizeQuality"><g><g><g><g id="change1_4"><path d="M853 1459c-11,0 -20,-9 -20,-20l0 -265c0,-11 9,-20 20,-20 11,0 20,9 20,20l0 265c0,11 -9,20 -20,20z"/></g><g id="change1_27"><path d="M853 1617c-54,0 -98,-45 -98,-99 0,-54 44,-99 98,-99 55,0 99,45 99,99 0,54 -44,99 -99,99zm0 -158c-32,0 -58,27 -58,59 0,32 26,59 58,59 33,0 59,-27 59,-59 0,-32 -26,-59 -59,-59z"/></g><g id="change1_19"><path d="M520 1546c-4,0 -7,-1 -10,-3 -10,-5 -13,-18 -7,-27l49 -87c6,-9 18,-12 28,-7 9,6 12,18 7,27l-50 87c-4,6 -10,10 -17,10z"/></g><g id="change1_29"><path d="M570 1459c-11,0 -20,-9 -20,-20l0 -265c0,-11 9,-20 20,-20 11,0 20,9 20,20l0 265c0,11 -9,20 -20,20z"/></g><g id="change1_1"><path d="M468 1683c-54,0 -99,-44 -99,-98 0,-55 45,-99 99,-99 54,0 98,44 98,99 0,54 -44,98 -98,98zm0 -157c-33,0 -59,26 -59,59 0,32 26,59 59,59 32,0 59,-27 59,-59 0,-33 -27,-59 -59,-59z"/></g><g id="change1_9"><path d="M1187 1546c-7,0 -14,-4 -17,-10l-50 -87c-6,-9 -3,-21 7,-27 9,-5 22,-2 27,7l50 87c6,9 2,22 -7,27 -3,2 -7,3 -10,3z"/></g><g id="change1_22"><path d="M1137 1459c-11,0 -20,-9 -20,-20l0 -265c0,-11 9,-20 20,-20 11,0 20,9 20,20l0 265c0,11 -9,20 -20,20z"/></g><g id="change1_17"><path d="M1239 1683c-55,0 -99,-44 -99,-98 0,-55 44,-99 99,-99 54,0 98,44 98,99 0,54 -44,98 -98,98zm0 -157c-33,0 -59,26 -59,59 0,32 26,59 59,59 32,0 59,-27 59,-59 0,-33 -27,-59 -59,-59z"/></g><g id="change1_10"><path d="M1368 1194l-1030 0c-11,0 -20,-9 -20,-20 0,-11 9,-19 20,-19l1030 0c11,0 20,8 20,19 0,11 -9,20 -20,20z"/></g><g id="change1_2"><path d="M694 242c-6,0 -11,-2 -15,-6 -7,-8 -7,-21 0,-28 84,-84 220,-84 304,0 7,7 7,20 0,28 -8,8 -21,8 -29,0 -68,-68 -178,-68 -246,0 -4,4 -9,6 -14,6z"/></g><g id="change1_5"><path d="M1482 549c-11,0 -20,-9 -20,-20 0,-66 -53,-119 -119,-119 -11,0 -20,-9 -20,-20 0,-11 9,-20 20,-20 88,0 159,71 159,159 0,11 -9,20 -20,20z"/></g><g id="change1_12"><path d="M1368 1194c-11,0 -19,-9 -19,-20 0,-11 8,-19 19,-19 165,0 298,-134 298,-298 0,-91 -40,-176 -112,-233 -6,-5 -9,-13 -6,-21 6,-21 9,-43 9,-64 0,-126 -102,-228 -228,-228 -40,0 -79,10 -114,30 -6,4 -14,4 -20,0 -34,-20 -74,-30 -114,-30 -11,0 -20,-9 -20,-20 0,-126 -102,-228 -227,-228 -126,0 -228,102 -228,228 0,11 -9,20 -20,20 -40,0 -79,10 -114,30 -6,4 -14,4 -20,0 -34,-20 -74,-30 -114,-30 -125,0 -228,102 -228,228 0,31 7,61 19,89 3,7 1,16 -4,21 -55,57 -85,130 -85,208 0,164 134,297 298,297 11,0 20,9 20,20 0,11 -9,20 -20,20 -186,0 -338,-151 -338,-337 0,-84 31,-164 87,-226 -11,-29 -16,-60 -16,-92 0,-148 120,-268 267,-268 43,0 86,10 124,30 32,-17 68,-27 105,-29 10,-139 126,-249 267,-249 141,0 257,110 267,249 36,2 72,12 104,29 38,-20 81,-30 124,-30 148,0 268,120 268,268 0,21 -3,42 -8,62 75,65 117,157 117,256 0,186 -151,337 -338,337z"/></g><g id="change1_25"><path d="M194 561c-11,0 -20,-9 -20,-20 0,-88 72,-160 160,-160 11,0 20,9 20,20 0,11 -9,20 -20,20 -66,0 -120,54 -120,120 0,11 -9,20 -20,20z"/></g><g id="change1_20"><path d="M214 1063c-4,0 -9,-1 -12,-4 -114,-87 -135,-251 -47,-364 7,-9 19,-10 28,-4 8,7 10,20 3,28 -36,47 -51,104 -44,163 8,58 38,110 84,146 9,6 10,19 4,28 -4,5 -10,7 -16,7z"/></g><g id="change1_30"><path d="M1493 1054c-6,0 -12,-2 -16,-7 -7,-9 -5,-22 4,-28 46,-36 76,-88 83,-146 8,-59 -8,-116 -44,-163 -6,-8 -5,-21 4,-28 9,-6 21,-5 28,4 42,55 61,123 52,192 -9,69 -44,130 -99,172 -4,3 -8,4 -12,4z"/></g><g id="change1_14"><path d="M111 1546c-54,0 -98,-44 -98,-98 0,-55 44,-99 98,-99 55,0 99,44 99,99 0,54 -44,98 -99,98zm0 -157c-32,0 -59,26 -59,59 0,32 27,58 59,58 33,0 59,-26 59,-58 0,-33 -26,-59 -59,-59z"/></g><g id="change1_24"><path d="M111 1389c-11,0 -20,-9 -20,-20l0 -74c0,-11 9,-20 20,-20l227 0c11,0 20,9 20,20 0,11 -9,20 -20,20l-207 0 0 54c0,11 -9,20 -20,20z"/></g><g id="change1_8"><path d="M338 1315c-11,0 -20,-9 -20,-20l0 -121c0,-11 9,-20 20,-20 11,0 20,9 20,20l0 121c0,11 -9,20 -20,20z"/></g><g id="change1_3"><path d="M1595 1546c-54,0 -98,-44 -98,-98 0,-55 44,-99 98,-99 55,0 99,44 99,99 0,54 -44,98 -99,98zm0 -157c-32,0 -58,26 -58,59 0,32 26,58 58,58 33,0 59,-26 59,-58 0,-33 -26,-59 -59,-59z"/></g><g id="change1_23"><path d="M1595 1389c-11,0 -19,-9 -19,-20l0 -54 -208 0c-11,0 -19,-9 -19,-20 0,-11 8,-20 19,-20l227 0c11,0 20,9 20,20l0 74c0,11 -9,20 -20,20z"/></g><g id="change1_6"><path d="M1368 1315c-11,0 -19,-9 -19,-20l0 -121c0,-11 8,-20 19,-20 11,0 20,9 20,20l0 121c0,11 -9,20 -20,20z"/></g><g><g id="change1_28"><path d="M1066 894l-372 0c-10,0 -18,-7 -20,-16l-71 -387c-1,-6 0,-12 4,-17 4,-4 10,-7 16,-7l562 0c7,0 13,3 16,8 4,5 5,12 3,18l-119 387c-2,8 -10,14 -19,14zm-355 -40l341 0 106 -347 -512 0 65 347z"/></g><g id="change1_7"><path d="M623 507c-11,0 -20,-9 -20,-20 0,-45 -37,-81 -82,-81 -11,0 -20,-9 -20,-20 0,-11 9,-20 20,-20 67,0 121,54 121,121 0,11 -8,20 -19,20z"/></g><g id="change1_18"><path d="M904 894c-11,0 -20,-9 -20,-20l0 -387c0,-11 9,-20 20,-20 11,0 20,9 20,20l0 387c0,11 -9,20 -20,20z"/></g><g id="change1_26"><path d="M1153 613l-511 0c-11,0 -20,-9 -20,-20 0,-11 9,-20 20,-20l511 0c11,0 20,9 20,20 0,11 -9,20 -20,20z"/></g><g id="change1_11"><path d="M1126 701l-468 0c-11,0 -20,-9 -20,-20 0,-11 9,-20 20,-20l468 0c11,0 20,9 20,20 0,11 -9,20 -20,20z"/></g><g id="change1_16"><path d="M1099 788l-425 0c-11,0 -19,-9 -19,-20 0,-11 8,-20 19,-20l425 0c11,0 20,9 20,20 0,11 -9,20 -20,20z"/></g><g id="change1_15"><path d="M1066 989l-324 0c-38,0 -68,-30 -68,-67l0 -48c0,-11 9,-20 20,-20 11,0 20,9 20,20l0 48c0,15 12,28 28,28l324 0c11,0 20,9 20,20 0,11 -9,19 -20,19z"/></g><g><g id="change1_21"><path d="M786 1123c-34,0 -63,-28 -63,-63 0,-34 29,-63 63,-63 35,0 63,29 63,63 0,35 -28,63 -63,63zm0 -86c-13,0 -23,11 -23,23 0,13 10,24 23,24 13,0 24,-11 24,-24 0,-12 -11,-23 -24,-23z"/></g><g id="change1_13"><path d="M974 1123c-35,0 -63,-28 -63,-63 0,-34 28,-63 63,-63 35,0 63,29 63,63 0,35 -28,63 -63,63zm0 -86c-13,0 -23,11 -23,23 0,13 10,24 23,24 13,0 23,-11 23,-24 0,-12 -10,-23 -23,-23z"/></g></g></g></g></g></g></svg>