<?xml version="1.0" encoding="UTF-8" standalone="no"?><svg xmlns="http://www.w3.org/2000/svg" xmlns:xlink="http://www.w3.org/1999/xlink" contentScriptType="text/ecmascript" zoomAndPan="magnify" text-rendering="geometricPrecision" contentStyleType="text/css" version="1" width="1707" clip-rule="evenodd" fill="#000000" preserveAspectRatio="xMidYMid meet" viewBox="1.0 68.0 1705.0 1570.0" height="1707" fill-rule="evenodd" image-rendering="optimizeQuality"><g><g><g><g id="change1_12"><path fill="#ffffff" d="M786 1400l-44 0c-6,0 -11,-3 -14,-6l-48 -48c-4,-4 -6,-9 -6,-14l0 -78c-32,-9 -63,-22 -92,-38l-55 55c-4,3 -9,6 -15,6l-67 0c-5,0 -11,-3 -14,-6l-63 -63c-3,-3 -5,-8 -5,-14l0 -67c0,-6 2,-11 5,-15l55 -55c-16,-29 -29,-60 -38,-92l-78 0c-5,0 -10,-2 -14,-6l-48 -48c-3,-3 -5,-8 -5,-14l0 -88c0,-5 2,-10 5,-14l48 -48c4,-3 9,-6 14,-6l78 0c9,-32 22,-63 38,-92l-55 -55c-3,-4 -5,-9 -5,-14l0 -68c0,-5 2,-10 5,-14l63 -62c3,-4 9,-6 14,-6l67 0c6,0 11,2 15,6l55 55c29,-16 60,-29 92,-38l0 -78c0,-5 2,-10 6,-14l48 -48c3,-4 8,-6 14,-6l44 0c11,0 20,9 20,20l0 1053c0,11 -9,20 -20,20zm-36 -40l16 0 0 -1013 -16 0 -36 36 0 85c0,10 -6,18 -15,20 -39,9 -76,24 -110,45 -8,5 -18,4 -25,-3l-60 -60 -51 0 -50 51 0 51 60 60c6,6 7,17 3,25 -21,34 -37,70 -46,109 -2,9 -10,15 -19,15l-85 0 -36 37 0 71 36 36 85 0c9,0 17,7 19,16 9,38 25,75 46,109 4,8 3,18 -3,25l-60 60 0 51 50 51 51 0 60 -61c7,-6 17,-7 25,-2 34,20 71,36 110,45 9,2 15,10 15,19l0 85 36 37z"/></g><g id="change1_28"><path fill="#ffffff" d="M786 1126c-151,0 -273,-122 -273,-273 0,-150 122,-273 273,-273 5,0 10,2 14,6 4,4 6,9 6,14l0 506c0,11 -9,20 -20,20zm-20 -505c-119,10 -213,111 -213,232 0,122 94,222 213,232l0 -464 0 0z"/></g><g id="change1_24"><path fill="#ffffff" d="M786 1035c-100,0 -181,-82 -181,-182 0,-100 81,-181 181,-181 5,0 10,2 14,6 4,4 6,9 6,14l0 323c0,11 -9,20 -20,20zm-20 -322c-69,10 -121,69 -121,140 0,71 52,130 121,140l0 -280z"/></g><g id="change1_14"><path fill="#ffffff" d="M474 1197c-5,0 -11,-2 -14,-6l-12 -11c-8,-8 -8,-21 0,-29 8,-7 21,-7 29,0l11 12c8,7 8,20 0,28 -4,4 -9,6 -14,6z"/></g><g id="change1_6"><path fill="#ffffff" d="M336 881c-11,0 -20,-9 -20,-20l0 -16c0,-11 9,-20 20,-20 11,0 20,9 20,20l0 16c0,11 -9,20 -20,20z"/></g><g id="change1_33"><path fill="#ffffff" d="M462 561c-5,0 -10,-2 -14,-6 -8,-7 -8,-20 0,-28l12 -11c7,-8 20,-8 28,0 8,8 8,20 0,28l-11 11c-4,4 -10,6 -15,6z"/></g><g id="change1_7"><path fill="#ffffff" d="M911 1537c-80,0 -145,-65 -145,-145l0 -1077c0,-80 65,-145 145,-145 80,0 145,65 145,145 0,9 -1,18 -3,27 39,-2 75,21 91,55 17,-9 35,-14 55,-14 63,0 114,51 114,113 0,18 -4,36 -12,52 39,18 65,58 65,103 0,7 0,14 -2,21 45,26 74,75 74,128 0,42 -17,80 -47,108 21,21 34,50 34,81 0,49 -31,91 -74,107 14,21 21,45 21,71 0,49 -29,94 -73,114 1,7 2,14 2,21 0,75 -59,139 -133,146 -22,38 -62,60 -107,60 -18,0 -35,-3 -51,-10 -27,25 -62,39 -99,39zm0 -1327c-58,0 -105,47 -105,105l0 1076c0,59 47,106 105,106 31,0 60,-14 80,-37 6,-8 17,-9 25,-4 14,8 29,12 45,12 33,0 63,-18 77,-48 4,-7 10,-11 18,-11 58,-1 105,-49 105,-107 0,-10 -1,-19 -4,-28 -3,-11 3,-22 14,-25 36,-10 61,-44 61,-82 0,-27 -12,-52 -33,-68 -7,-5 -9,-14 -7,-22 3,-8 11,-14 19,-14 41,0 74,-33 74,-74 0,-26 -14,-51 -37,-64 -6,-3 -10,-10 -10,-17 -1,-7 3,-13 9,-17 32,-20 51,-54 51,-91 0,-43 -26,-82 -65,-99 -10,-4 -15,-15 -11,-25 3,-8 4,-17 4,-25 0,-36 -25,-67 -60,-73 -7,-1 -13,-6 -15,-13 -3,-7 -1,-14 3,-20 12,-13 19,-31 19,-49 0,-40 -33,-73 -74,-73 -20,0 -39,8 -53,22 -5,6 -13,7 -21,5 -7,-3 -12,-10 -13,-18 -2,-28 -26,-50 -54,-50 -9,0 -18,2 -26,6 -7,4 -17,3 -23,-3 -6,-6 -8,-16 -4,-23 7,-15 11,-31 11,-47 0,-58 -47,-105 -105,-105z"/></g><g id="change1_34"><path fill="#ffffff" d="M786 1130c-4,0 -8,-1 -11,-3 -9,-6 -12,-18 -6,-27 3,-6 82,-126 190,-132 11,-1 21,7 21,18 1,11 -8,21 -19,21 -87,6 -158,113 -158,114 -4,6 -11,9 -17,9z"/></g><g id="change1_1"><path fill="#ffffff" d="M978 1155c0,0 -1,0 -2,-1 -89,-10 -128,-83 -135,-120 -2,-11 5,-21 15,-24 11,-2 22,5 24,16 1,3 18,79 101,89 11,1 19,11 17,22 -1,10 -10,18 -20,18z"/></g><g id="change1_40"><path fill="#ffffff" d="M1181 1185c-4,0 -8,-1 -11,-3 -63,-39 -59,-83 -56,-118 2,-31 4,-54 -35,-82 -8,-6 -10,-18 -4,-27 6,-9 19,-11 28,-5 56,41 53,83 50,117 -2,33 -4,55 38,81 10,6 13,18 7,27 -4,6 -11,10 -17,10z"/></g><g id="change1_37"><path fill="#ffffff" d="M950 1378c-33,0 -56,-7 -56,-8 -11,-3 -16,-14 -13,-25 4,-10 15,-16 25,-13 4,2 102,32 168,-56 7,-9 20,-11 28,-4 9,7 11,19 4,28 -48,64 -111,78 -156,78z"/></g><g id="change1_16"><path fill="#ffffff" d="M824 564c-18,0 -33,-2 -44,-6 -11,-4 -17,-15 -13,-25 3,-11 15,-17 25,-13 3,1 77,23 127,-43 7,-9 20,-11 28,-4 9,7 11,19 4,28 -37,49 -87,63 -127,63z"/></g><g id="change1_3"><path fill="#ffffff" d="M1248 862c0,0 0,0 0,0 -11,0 -20,-9 -20,-20 2,-72 -48,-146 -70,-174 -7,-9 -5,-21 4,-28 8,-7 21,-5 28,4 30,39 80,117 78,199 0,11 -9,19 -20,19z"/></g><g id="change1_25"><path fill="#ffffff" d="M1140 790c-7,0 -13,-4 -17,-10 -6,-9 -3,-22 7,-27 48,-29 97,-27 99,-27 11,1 19,10 19,21 -1,11 -10,20 -21,19 -1,0 -40,-1 -77,21 -3,2 -7,3 -10,3z"/></g><g id="change1_32"><path fill="#ffffff" d="M1107 886c-1,0 -2,-1 -2,-1 -46,-4 -89,-22 -125,-54 -9,-8 -9,-20 -2,-29 7,-8 20,-9 28,-1 30,26 64,41 102,45 11,1 19,10 18,21 0,11 -9,19 -19,19z"/></g><g id="change1_35"><path fill="#ffffff" d="M1134 1051c-8,0 -16,-5 -19,-14 -4,-10 2,-21 13,-25 24,-8 43,-22 57,-42 6,-9 19,-11 28,-5 9,6 11,19 5,28 -19,26 -46,46 -78,57 -2,1 -4,1 -6,1z"/></g><g id="change1_30"><path fill="#ffffff" d="M956 689c-1,0 -1,0 -2,0 -11,0 -19,-10 -18,-21 0,-3 2,-81 -75,-112 -10,-4 -15,-16 -11,-26 4,-10 16,-15 26,-11 84,34 102,114 99,152 0,10 -9,18 -19,18z"/></g><g id="change1_2"><path fill="#ffffff" d="M826 854c-26,0 -45,-6 -46,-7 -11,-3 -17,-15 -13,-25 3,-11 15,-16 25,-13 1,1 53,16 98,-14 9,-7 22,-4 28,5 6,9 4,22 -5,28 -31,20 -62,26 -87,26z"/></g><g id="change1_31"><path fill="#ffffff" d="M1063 665c-3,0 -6,-1 -9,-3 -10,-4 -14,-16 -9,-26 18,-36 23,-73 17,-111 -2,-10 5,-21 16,-23 11,-2 21,6 23,17 8,45 1,92 -20,135 -4,7 -11,11 -18,11z"/></g><g id="change1_36"><path fill="#ffffff" d="M1028 1361c-5,0 -10,-2 -14,-6 -32,-31 -55,-70 -69,-113 -3,-11 3,-22 14,-25 10,-3 21,2 25,13 11,37 31,70 58,96 8,8 8,21 1,29 -4,4 -10,6 -15,6z"/></g><g id="change1_26"><path fill="#ffffff" d="M74 509c-38,0 -70,-32 -70,-70 0,-39 32,-70 70,-70 39,0 70,31 70,70 0,38 -31,70 -70,70zm0 -100c-16,0 -30,13 -30,30 0,16 14,30 30,30 16,0 30,-14 30,-30 0,-17 -14,-30 -30,-30z"/></g><g id="change1_23"><path fill="#ffffff" d="M417 498c-5,0 -10,-2 -14,-6l-122 -122 -109 0 -49 48c-7,8 -20,8 -28,0 -8,-8 -8,-21 0,-28l54 -54c4,-4 9,-6 14,-6l126 0c6,0 11,2 14,6l128 128c8,7 8,20 0,28 -3,4 -9,6 -14,6z"/></g><g id="change1_10"><path fill="#ffffff" d="M286 1373l-126 0c-6,0 -11,-2 -14,-5l-54 -54c-8,-8 -8,-21 0,-29 7,-8 20,-8 28,0l48 48 109 0 123 -122c7,-8 20,-8 28,0 8,8 8,21 0,29l-128 128c-4,3 -9,5 -14,5z"/></g><g id="change1_4"><path fill="#ffffff" d="M260 873l-136 0c-11,0 -20,-9 -20,-20 0,-11 9,-20 20,-20l136 0c11,0 20,9 20,20 0,11 -9,20 -20,20z"/></g><g id="change1_8"><path fill="#ffffff" d="M74 923c-38,0 -70,-31 -70,-70 0,-38 32,-69 70,-69 39,0 70,31 70,69 0,39 -31,70 -70,70zm0 -99c-16,0 -30,13 -30,29 0,17 14,30 30,30 16,0 30,-13 30,-30 0,-16 -14,-29 -30,-29z"/></g><g id="change1_18"><path fill="#ffffff" d="M70 1334c-38,0 -69,-31 -69,-70 0,-38 31,-70 69,-70 39,0 70,32 70,70 0,39 -31,70 -70,70zm0 -100c-16,0 -29,14 -29,30 0,17 13,30 29,30 17,0 30,-13 30,-30 0,-16 -13,-30 -30,-30z"/></g><g id="change1_39"><path fill="#ffffff" d="M1633 509c-39,0 -70,-32 -70,-70 0,-39 31,-70 70,-70 38,0 69,31 69,70 0,38 -31,70 -69,70zm0 -100c-17,0 -30,13 -30,30 0,16 13,30 30,30 16,0 29,-14 29,-30 0,-17 -13,-30 -29,-30z"/></g><g id="change1_19"><path fill="#ffffff" d="M1291 496c-5,0 -10,-2 -14,-6 -8,-7 -8,-20 0,-28l126 -126c4,-4 9,-6 14,-6l126 0c6,0 11,2 15,6l54 54c7,7 7,20 0,28 -8,8 -21,8 -29,0l-48 -48 -109 0 -121 120c-4,4 -9,6 -14,6z"/></g><g id="change1_27"><path fill="#ffffff" d="M1547 1373l-126 0c-5,0 -10,-2 -14,-5l-106 -106c-8,-8 -8,-21 0,-29 8,-7 20,-7 28,0l100 100 110 0 48 -48c8,-7 20,-7 28,0 8,8 8,21 0,29l-54 54c-4,3 -9,5 -14,5z"/></g><g id="change1_38"><path fill="#ffffff" d="M1583 873l-177 0c-11,0 -20,-9 -20,-20 0,-11 9,-20 20,-20l177 0c11,0 20,9 20,20 0,11 -9,20 -20,20z"/></g><g id="change1_21"><path fill="#ffffff" d="M1633 923c-39,0 -70,-31 -70,-70 0,-38 31,-69 70,-69 38,0 69,31 69,69 0,39 -31,70 -69,70zm0 -99c-17,0 -30,13 -30,29 0,17 13,30 30,30 16,0 29,-13 29,-30 0,-16 -13,-29 -29,-29z"/></g><g id="change1_15"><path fill="#ffffff" d="M1636 1334c-38,0 -70,-31 -70,-70 0,-38 32,-70 70,-70 39,0 70,32 70,70 0,39 -31,70 -70,70zm0 -100c-16,0 -30,14 -30,30 0,17 14,30 30,30 17,0 30,-13 30,-30 0,-16 -13,-30 -30,-30z"/></g><g id="change1_5"><path fill="#ffffff" d="M643 504c-7,0 -14,-4 -17,-10l-190 -336 -155 0c-11,0 -20,-9 -20,-20 0,-11 9,-20 20,-20l167 0c7,0 13,4 17,10l196 346c5,10 2,22 -8,27 -3,2 -6,3 -10,3z"/></g><g id="change1_20"><path fill="#ffffff" d="M448 1589l-167 0c-11,0 -20,-9 -20,-20 0,-11 9,-20 20,-20l155 0 190 -336c5,-10 17,-13 27,-8 10,6 13,18 8,28l-196 345c-4,7 -10,11 -17,11z"/></g><g id="change1_29"><path fill="#ffffff" d="M231 208c-38,0 -70,-31 -70,-70 0,-38 32,-70 70,-70 39,0 70,32 70,70 0,39 -31,70 -70,70zm0 -100c-16,0 -30,14 -30,30 0,16 14,30 30,30 17,0 30,-14 30,-30 0,-16 -13,-30 -30,-30z"/></g><g id="change1_9"><path fill="#ffffff" d="M231 1638c-38,0 -70,-31 -70,-69 0,-39 32,-70 70,-70 39,0 70,31 70,70 0,38 -31,69 -70,69zm0 -99c-16,0 -30,13 -30,30 0,16 14,29 30,29 17,0 30,-13 30,-29 0,-17 -13,-30 -30,-30z"/></g><g id="change1_17"><path fill="#ffffff" d="M1097 393c-3,0 -6,-1 -9,-3 -10,-5 -13,-17 -8,-27l133 -235c3,-6 10,-10 17,-10l167 0c11,0 20,9 20,20 0,11 -9,20 -20,20l-155 0 -127 225c-4,6 -11,10 -18,10z"/></g><g id="change1_22"><path fill="#ffffff" d="M1397 1589l-167 0c-7,0 -14,-4 -17,-11l-77 -135c-5,-9 -2,-21 8,-27 10,-5 22,-2 27,8l71 125 155 0c11,0 20,9 20,20 0,11 -9,20 -20,20z"/></g><g id="change1_11"><path fill="#ffffff" d="M1447 208c-39,0 -70,-31 -70,-70 0,-38 31,-70 70,-70 38,0 69,32 69,70 0,39 -31,70 -69,70zm0 -100c-17,0 -30,14 -30,30 0,16 13,30 30,30 16,0 29,-14 29,-30 0,-16 -13,-30 -29,-30z"/></g><g id="change1_13"><path fill="#ffffff" d="M1447 1638c-39,0 -70,-31 -70,-69 0,-39 31,-70 70,-70 38,0 69,31 69,70 0,38 -31,69 -69,69zm0 -99c-17,0 -30,13 -30,30 0,16 13,29 30,29 16,0 29,-13 29,-29 0,-17 -13,-30 -29,-30z"/></g></g></g></g></svg>