<?xml version="1.0" encoding="UTF-8" standalone="no"?><svg xmlns="http://www.w3.org/2000/svg" xmlns:xlink="http://www.w3.org/1999/xlink" contentScriptType="text/ecmascript" fill="#314328" width="489" zoomAndPan="magnify" contentStyleType="text/css" viewBox="11.7 88.4 488.6 335.3" height="335" preserveAspectRatio="xMidYMid meet" version="1"><g id="change1_1"><path d="M464.14,157.01c-20.91-14.23-48.41-21.25-84.03-21.43c-50.11-46.66-129.52-60.38-194.95-33.7 c-33.85-14.68-74.25-14.08-106.07,1.71c-32.01,15.88-56.82,50.13-64.76,89.4c-6.82,33.72-0.26,65.21,18,86.41 c16.61,19.28,42.43,32.84,74.68,39.24c-0.22,29.37-2.54,59.41-7.01,91.06c-0.24,1.72,0.27,3.47,1.42,4.78 c1.14,1.31,2.79,2.06,4.52,2.06c0.01,0,0.01,0,0.02,0c22.74-0.07,45.85-0.42,68.21-0.76c76.99-1.18,156.61-2.39,235.4,7.82 c0.26,0.03,0.52,0.05,0.77,0.05c1.56,0,3.07-0.61,4.2-1.72c1.31-1.29,1.96-3.11,1.76-4.94c-5.01-45.38-4.15-80.06,3.15-122.47 c2.39-0.77,5.53-1.53,9.09-2.39c21.28-5.16,56.88-13.81,69.12-53.53C507.49,206.7,488.24,173.42,464.14,157.01z M403.59,410.75 c-51.43-6.2-102.98-7.75-153.84-7.75c-25.45,0-50.75,0.39-75.76,0.77c-20.06,0.31-40.72,0.62-61.16,0.73 c5.23-39.5,7.13-76.62,5.79-113.19c10.92-8.38,54.61-15.48,147.62-11.67c65.66,2.7,125.48,9.78,141.19,14 C400.52,334.34,399.39,368.19,403.59,410.75z M486.2,235.05c-10.23,33.2-40.47,40.54-60.49,45.4c-4.32,1.05-8.09,1.97-11.13,3.03 c-4-1.5-10.7-2.98-19.26-4.41c8.32-20.29,24.5-37.54,44.3-46.92c3-1.42,4.27-5,2.86-7.99s-5-4.27-7.99-2.86 c-23.34,11.05-42.24,31.74-51.33,55.93c-7.55-1.03-15.94-2.02-24.81-2.95c2.18-19.47-1.81-39.33-11.46-56.45 c-1.63-2.89-5.29-3.91-8.17-2.28c-2.89,1.63-3.91,5.29-2.28,8.17c8.44,14.97,11.92,32.35,9.97,49.37 c-13.42-1.27-27.53-2.4-41.23-3.32c-0.17-0.2-0.35-0.39-0.56-0.57c-41.2-36.42-65.52-63.88-78.85-89.01 c-1.55-2.93-5.19-4.04-8.11-2.49c-2.93,1.55-4.04,5.19-2.49,8.11c12.82,24.15,34.88,49.99,70.81,82.76 c-6.01-0.33-11.83-0.62-17.33-0.85c-15.74-0.67-30.71-1.03-44.7-1.11c-10.36-8.47-17.47-21.02-24.35-33.18 c-0.65-1.15-1.3-2.3-1.95-3.44c-8.21-14.42-18.36-30.51-34.95-39c-3.88-1.99-7.35-2.14-10.29-0.46c-3.04,1.73-4.67,4.93-4.83,9.5 c-0.76,21,6.26,42.53,19.25,59.06c2.05,2.61,5.82,3.06,8.42,1.01c2.61-2.05,3.06-5.82,1.01-8.42 c-10.75-13.68-16.78-31.31-16.74-48.73c12.37,7.35,20.76,20.81,27.7,32.99c0.65,1.13,1.29,2.27,1.93,3.41 c5.31,9.4,10.76,19,17.84,27.32c-14.11,0.18-26.97,0.7-38.26,1.56c-16.85,1.28-38.79,3.74-52.16,10.42 c-9.27-16.34-23.01-30.29-39.26-39.66c-2.87-1.66-6.54-0.67-8.2,2.2c-1.66,2.87-0.67,6.54,2.2,8.2 c14.99,8.65,27.59,21.68,35.8,36.93c-0.4,0.86-0.62,1.81-0.58,2.78c0.24,5.75,0.38,11.51,0.45,17.29 c-20.46-4.35-47.52-13.89-65.55-34.81c-15.82-18.37-21.41-46.14-15.33-76.2c7.22-35.71,29.58-66.76,58.33-81.02 c28.97-14.37,67.5-14.56,98.15-0.47c1.54,0.71,3.3,0.73,4.85,0.07c62.35-26.53,138.9-13.38,186.14,31.97 c1.12,1.07,2.61,1.67,4.16,1.67c0.32,0.01,0.66,0,1,0c33.8,0,59.54,6.33,78.67,19.35C484.42,185.33,492.34,215.12,486.2,235.05z"/></g></svg>