<?xml version="1.0" encoding="UTF-8" standalone="no"?><svg xmlns="http://www.w3.org/2000/svg" xmlns:xlink="http://www.w3.org/1999/xlink" contentScriptType="text/ecmascript" zoomAndPan="magnify" text-rendering="geometricPrecision" contentStyleType="text/css" version="1" width="1705" clip-rule="evenodd" fill="#ffffff" preserveAspectRatio="xMidYMid meet" viewBox="1.0 257.0 1704.7 1193.0" height="1193" fill-rule="evenodd" image-rendering="optimizeQuality"><g><g><g><g id="change1_11"><path d="M1102 1169l-344 0c-9,0 -17,-7 -17,-16 0,-10 8,-17 17,-17l344 0c38,0 70,-32 70,-70 0,-40 -32,-72 -70,-72l-274 0c-9,0 -17,-7 -17,-16 0,-10 8,-17 17,-17l274 0c57,0 103,47 103,105 0,57 -46,103 -103,103z"/></g><g id="change1_9"><path d="M940 1418c-126,0 -230,-42 -414,-115l-11 -4c-9,-4 -13,-13 -9,-22 3,-8 13,-12 21,-9l12 5c213,84 310,123 459,109 157,-16 617,-280 644,-295 49,-40 25,-83 22,-88 -48,-62 -98,-37 -100,-35 -1,0 -1,0 -1,0l-391 176c-8,4 -18,0 -22,-9 -4,-8 0,-18 9,-22l390 -175c27,-14 91,-22 142,46 0,0 1,0 1,1 16,24 30,84 -31,133 0,0 -1,1 -2,1 -20,12 -490,283 -658,300 -21,2 -41,3 -61,3z"/></g><g id="change1_12"><path d="M828 994c0,0 -1,0 -1,0 -64,-2 -117,-29 -168,-55 -47,-24 -91,-47 -137,-45 -9,1 -17,-6 -18,-15 0,-10 7,-17 16,-18 55,-3 103,22 154,48 48,25 98,50 154,52 10,0 17,8 16,17 0,9 -7,16 -16,16z"/></g><g id="change1_5"><path d="M475 1450l-144 0c-34,0 -61,-28 -61,-62l0 -606c0,-34 27,-62 61,-62l144 0c35,0 63,28 63,62l0 606c0,34 -28,62 -63,62zm-144 -696c-16,0 -28,12 -28,28l0 606c0,16 12,29 28,29l144 0c16,0 29,-13 29,-29l0 -606c0,-16 -13,-28 -29,-28l-144 0 0 0z"/></g><g id="change1_4"><path d="M286 1369l-197 0c-49,0 -88,-40 -88,-89l0 -391c0,-49 39,-88 88,-88l197 0c10,0 17,8 17,17 0,9 -7,17 -17,17l-197 0c-30,0 -55,24 -55,54l0 391c0,31 25,56 55,56l197 0c10,0 17,7 17,16 0,10 -7,17 -17,17z"/></g><g id="change1_13"><path d="M403 1146c-33,0 -60,-27 -60,-61 0,-34 27,-61 60,-61 34,0 62,27 62,61 0,34 -28,61 -62,61zm0 -89c-15,0 -27,13 -27,28 0,15 12,28 27,28 16,0 28,-13 28,-28 0,-15 -12,-28 -28,-28z"/></g><g><g id="change1_6"><path d="M1040 785c-127,0 -231,-103 -231,-230 0,-127 104,-230 231,-230 126,0 229,103 229,230 0,127 -103,230 -229,230zm0 -427c-109,0 -198,88 -198,197 0,108 89,196 198,196 108,0 196,-88 196,-196 0,-109 -88,-197 -196,-197z"/></g><g id="change1_10"><path d="M1040 854c-165,0 -299,-134 -299,-299 0,-164 134,-298 299,-298 164,0 298,134 298,298 0,165 -134,299 -298,299zm0 -564c-147,0 -265,119 -265,265 0,146 118,265 265,265 146,0 265,-119 265,-265 0,-146 -119,-265 -265,-265z"/></g><g id="change1_2"><path d="M1100 686c-10,0 -21,-3 -30,-9 0,0 0,0 0,0l-31 -22 -31 22c-8,6 -19,9 -29,9 -11,0 -22,-3 -31,-9 -18,-12 -26,-36 -18,-57l12 -36 -31 -22c-18,-13 -26,-36 -19,-57 0,-1 0,-1 0,-1 7,-22 26,-35 49,-35l38 0 12 -37c0,0 0,0 0,0 8,-22 26,-35 49,-35 21,0 41,14 48,35 0,0 0,0 0,0l12 37 37 0c24,0 43,14 49,35 7,21 0,44 -18,57 0,1 0,1 0,1l-31 22 12 36c0,0 0,0 1,0 6,22 -2,45 -20,57 -9,6 -19,9 -30,9zm-11 -37c7,5 15,5 21,1 1,0 1,-1 1,-1 6,-4 8,-12 7,-19l-16 -48c-3,-7 0,-14 6,-19l41 -28c6,-5 8,-13 6,-20 0,-1 -1,-1 -1,-2 -2,-10 -12,-11 -17,-11l-49 0c-8,0 -14,-5 -16,-12l-15 -47c-3,-8 -10,-13 -17,-13 -12,0 -16,9 -18,13l-16 47c-2,7 -8,12 -15,12l-50 0c-8,0 -15,4 -17,12 -2,6 -1,15 6,20l41 30c6,4 9,11 6,18l-16 48c0,0 0,1 0,1 -2,6 0,14 6,18 7,5 15,5 22,1 0,0 0,0 0,-1l41 -29c6,-4 14,-4 19,1l40 28z"/></g></g><g><g><g id="change1_8"><path d="M521 1241l-235 0c-9,0 -16,-7 -16,-17 0,-9 7,-16 16,-16l235 0c9,0 17,7 17,16 0,10 -8,17 -17,17z"/></g><g id="change1_3"><path d="M521 1330l-235 0c-9,0 -16,-7 -16,-17 0,-9 7,-16 16,-16l235 0c9,0 17,7 17,16 0,10 -8,17 -17,17z"/></g></g><g><g id="change1_1"><path d="M521 873l-235 0c-9,0 -16,-7 -16,-16 0,-9 7,-17 16,-17l235 0c9,0 17,8 17,17 0,9 -8,16 -17,16z"/></g><g id="change1_7"><path d="M521 961l-235 0c-9,0 -16,-7 -16,-16 0,-9 7,-17 16,-17l235 0c9,0 17,8 17,17 0,9 -8,16 -17,16z"/></g></g></g></g></g></g></svg>