<?xml version="1.0" encoding="UTF-8" standalone="no"?><svg xmlns="http://www.w3.org/2000/svg" xmlns:xlink="http://www.w3.org/1999/xlink" contentScriptType="text/ecmascript" zoomAndPan="magnify" contentStyleType="text/css" version="1" width="495" stroke-miterlimit="2" clip-rule="evenodd" fill="#ffffff" preserveAspectRatio="xMidYMid meet" viewBox="7.6 7.0 494.8 496.0" height="496" stroke-linejoin="round" fill-rule="evenodd"><g id="change1_1"><path d="M363.715,62.798L313.723,62.798L281.093,95.428C279.592,96.929 277.557,97.772 275.436,97.772L214.862,97.772L195.042,117.502C191.913,120.617 186.843,120.605 183.728,117.476C180.613,114.347 180.625,109.277 183.754,106.162L205.915,84.102C207.414,82.609 209.443,81.772 211.559,81.772L272.122,81.772L304.752,49.141C306.253,47.641 308.288,46.798 310.409,46.798L363.715,46.798L363.715,20.655C363.715,13.114 369.828,7 377.37,7L488.726,7C496.268,7 502.381,13.114 502.381,20.655L502.381,84.116C502.381,91.658 496.268,97.772 488.726,97.772L377.37,97.772C369.828,97.772 363.715,91.658 363.715,84.116L363.715,62.798ZM379.715,23L379.715,81.772L486.381,81.772L486.381,23L379.715,23ZM403.729,69.799C399.314,69.799 395.729,66.214 395.729,61.799C395.729,57.384 399.314,53.799 403.729,53.799L462.367,53.799C466.782,53.799 470.367,57.384 470.367,61.799C470.367,66.214 466.782,69.799 462.367,69.799L403.729,69.799ZM403.729,45.186C399.314,45.186 395.729,41.601 395.729,37.186C395.729,32.77 399.314,29.186 403.729,29.186L462.367,29.186C466.782,29.186 470.367,32.77 470.367,37.186C470.367,41.601 466.782,45.186 462.367,45.186L403.729,45.186ZM363.715,200.009L344.95,200.009C342.829,200.009 340.794,199.166 339.293,197.666L301.587,159.959L277.044,159.959C272.629,159.959 269.044,156.375 269.044,151.959C269.044,147.544 272.629,143.959 277.044,143.959L304.901,143.959C307.023,143.959 309.058,144.802 310.558,146.303L348.264,184.009L363.715,184.009L363.715,160.278C363.715,152.737 369.828,146.623 377.37,146.623L488.726,146.623C496.268,146.623 502.381,152.737 502.381,160.278L502.381,223.739C502.381,231.281 496.268,237.394 488.726,237.394L377.37,237.394C369.828,237.394 363.715,231.281 363.715,223.739L363.715,200.009ZM379.715,162.623L379.715,221.394L486.381,221.394L486.381,162.623L379.715,162.623ZM403.729,184.809C399.314,184.809 395.729,181.224 395.729,176.809C395.729,172.393 399.314,168.809 403.729,168.809L462.367,168.809C466.782,168.809 470.367,172.393 470.367,176.809C470.367,181.224 466.782,184.809 462.367,184.809L403.729,184.809ZM403.729,209.422C399.314,209.422 395.729,205.837 395.729,201.422C395.729,197.006 399.314,193.422 403.729,193.422L462.367,193.422C466.782,193.422 470.367,197.006 470.367,201.422C470.367,205.837 466.782,209.422 462.367,209.422L403.729,209.422ZM363.715,339.632L348.859,339.632C345.866,339.632 343.124,337.961 341.751,335.302L328.086,308.837C326.06,304.914 327.6,300.084 331.524,298.058C335.447,296.033 340.277,297.573 342.302,301.496C342.302,301.496 353.732,323.632 353.732,323.632L363.715,323.632L363.715,299.901C363.715,292.36 369.828,286.246 377.37,286.246L488.726,286.246C496.268,286.246 502.381,292.36 502.381,299.901L502.381,363.362C502.381,370.904 496.268,377.017 488.726,377.017L377.37,377.017C369.828,377.017 363.715,370.904 363.715,363.362L363.715,339.632ZM379.715,302.246L379.715,361.017L486.381,361.017L486.381,302.246L379.715,302.246ZM403.729,349.045C399.314,349.045 395.729,345.46 395.729,341.045C395.729,336.629 399.314,333.045 403.729,333.045L462.367,333.045C466.782,333.045 470.367,336.629 470.367,341.045C470.367,345.46 466.782,349.045 462.367,349.045L403.729,349.045ZM403.729,324.431C399.314,324.431 395.729,320.847 395.729,316.431C395.729,312.016 399.314,308.431 403.729,308.431L462.367,308.431C466.782,308.431 470.367,312.016 470.367,316.431C470.367,320.847 466.782,324.431 462.367,324.431L403.729,324.431ZM242.742,422.66C219.842,435.639 193.37,443.048 165.165,443.048C78.147,443.048 7.619,372.52 7.619,285.502C7.619,198.484 78.147,127.955 165.165,127.955C252.183,127.955 322.712,198.484 322.712,285.502C322.712,317.663 313.077,347.572 296.537,372.5L365.407,441.37C378.277,454.24 378.277,475.107 365.407,487.977L360.036,493.347C347.166,506.218 326.299,506.218 313.429,493.347L242.742,422.66ZM286.914,385.505C278.094,396.231 267.884,405.771 256.559,413.849L324.743,482.034C331.365,488.655 342.101,488.655 348.722,482.034L354.093,476.663C360.715,470.041 360.715,459.306 354.093,452.684L286.914,385.505ZM165.165,143.955C86.984,143.955 23.619,207.321 23.619,285.502C23.619,363.682 86.984,427.048 165.165,427.048C243.346,427.048 306.712,363.682 306.712,285.502C306.712,207.321 243.346,143.955 165.165,143.955ZM165.182,410.206C96.496,410.206 40.461,354.206 40.461,285.519C40.461,216.833 96.496,160.797 165.182,160.797C233.869,160.797 289.869,216.832 289.869,285.519C289.869,354.207 233.87,410.206 165.182,410.206ZM165.182,394.206C225.056,394.206 273.869,345.393 273.869,285.519C273.869,225.645 225.057,176.797 165.182,176.797C105.308,176.797 56.461,225.644 56.461,285.519C56.461,345.393 105.308,394.206 165.182,394.206ZM208.553,241.654L240.522,241.654C244.94,241.654 248.522,245.235 248.522,249.654L248.522,343.147C248.522,347.566 244.94,351.147 240.522,351.147L208.553,351.147C204.134,351.147 200.553,347.566 200.553,343.147L200.553,249.654C200.553,245.235 204.134,241.654 208.553,241.654ZM216.553,257.654C216.553,257.654 216.553,335.147 216.553,335.147L232.522,335.147C232.522,335.147 232.522,257.654 232.522,257.654L216.553,257.654ZM149.191,219.856L181.16,219.856C185.578,219.856 189.16,223.438 189.16,227.856L189.16,343.147C189.16,347.566 185.578,351.147 181.16,351.147L149.191,351.147C144.773,351.147 141.191,347.566 141.191,343.147L141.191,227.856C141.191,223.438 144.773,219.856 149.191,219.856ZM157.191,235.856L157.191,335.147L173.16,335.147L173.16,235.856L157.191,235.856ZM89.809,273.81L121.798,273.81C126.216,273.81 129.798,277.391 129.798,281.81L129.798,343.147C129.798,347.566 126.216,351.147 121.798,351.147L89.809,351.147C85.39,351.147 81.809,347.566 81.809,343.147L81.809,281.81C81.809,277.391 85.39,273.81 89.809,273.81ZM97.809,289.81C97.809,289.81 97.809,335.147 97.809,335.147L113.798,335.147C113.798,335.147 113.798,289.81 113.798,289.81L97.809,289.81Z"/></g></svg>